<svg id="e2080b93-647e-4f1a-8b14-539ab30d3964" data-name="Capa 1" xmlns="http://www.w3.org/2000/svg" xmlns:xlink="http://www.w3.org/1999/xlink" viewBox="0 0 361.41 243.44"><defs><style>.b8faeeeb-9013-4c53-94fe-d28d4356233f,.efc99239-3876-4ae0-a819-ea735174d42a{fill:none;stroke:#fff;stroke-miterlimit:10;}.a2c3c35a-f36e-4de8-bd97-4cf9e8d439f4{clip-path:url(#e63cebd9-b0d2-4a11-8835-796e70ce0d1d);}.efc99239-3876-4ae0-a819-ea735174d42a{stroke-width:0.25px;}.bf8ac6ae-b8a7-48d1-a0f8-7cca79b8fd47{clip-path:url(#b1a33a9a-6d8d-46de-b050-b83172cfc913);}.fb2638a8-2c02-4b43-85ea-955f91b12137{clip-path:url(#a8cd206c-085b-4c3e-982e-72443b95fd77);}.b895ff2a-65e6-45b2-8145-4aa30d6bf44f{clip-path:url(#e6c23af8-83d3-4eb0-974b-3aef4ba9d89a);}.e47c3546-00a9-4137-81bf-ff857dbcbe79{clip-path:url(#b8da8e9f-9029-4d45-ad8b-056fc5338fe4);}.b52bbf31-4120-450b-a120-233bb7163580{clip-path:url(#a34f2620-0b96-4d66-9290-0935a677f2c0);}.e217fd2d-8c5d-4a3b-8a97-e40bedff3ad9{clip-path:url(#f7b6b199-cd84-4b48-bf8d-dfbd74412713);}.ae6f27e5-08be-44aa-9dae-0981cae9e889{clip-path:url(#e4e81301-ac9d-43c5-a165-8efcdde75ae8);}.ad5ba184-68a2-4140-93d3-6e635b11a183{clip-path:url(#ae96a6c9-7edd-4af1-9424-f7cb2e2bf93b);}.a2d29847-a184-47be-82ca-fba7d4720375{clip-path:url(#b198e14d-a43f-454a-bd6d-d1ba9223fe1d);}.e69d02b9-b306-48d8-bb57-f9ae42970367{clip-path:url(#b3724d98-7198-4ab8-9404-6f5ca8693638);}.bcad56b5-eb64-4707-8fc9-3f591268488e{clip-path:url(#b7c42742-d29b-4614-8983-695b1d4cb8df);}.b8264707-c73e-400d-80a5-bd3ffd2c7f40{clip-path:url(#adb70346-d1a7-4458-9d6f-3d42f2b961cd);}.bcca0b0a-bb0b-4a60-a9f4-a93c51a31ce2{clip-path:url(#b791ddc2-c6ff-46c8-a888-f00533340fbc);}.a5ff120a-c794-4db0-8f7c-ee9ede2eea94{clip-path:url(#abc18ef1-d22b-4abf-8039-f6bf61d2bfb3);}.a7ebde5b-a7b4-4580-b7b7-754745e651d1{clip-path:url(#f12a3bcd-84ff-4159-bc24-8e72818a4223);}.a4182fa4-54d0-4b4b-aed7-4a719243639c{clip-path:url(#b384759f-564d-4d0e-82d7-8b7346550d8a);}.e633152c-c598-4e34-b179-277fcfd7524b{clip-path:url(#b18a83de-0be4-4fe3-aa38-8acc8ee5d1b5);}.ae13f455-3bf4-437c-8807-6466c3561fc9{clip-path:url(#b5be5307-233e-44c2-8c29-bab49e9b00af);}.f19904be-d55b-4470-baa8-0d1c6531f4f4{clip-path:url(#f6935f05-55ba-499a-a98a-f456103eb548);}.f8320839-be5b-4dbe-bc55-12885996cd3c{clip-path:url(#b2cc3809-ace3-4d57-a8cf-fe08cced1801);}.bace5883-a7ff-4b49-a798-525f3212c83d{clip-path:url(#e4ab9505-9fdb-4666-b07a-61500c33f397);}</style><clipPath id="e63cebd9-b0d2-4a11-8835-796e70ce0d1d" transform="translate(0.38 0.37)"><path class="b8faeeeb-9013-4c53-94fe-d28d4356233f" d="M315.48,40.65c29,27.38,30.47,81.12-.33,121.87-16.67,22-37.21,35.41-62.26,38.93l-1.07.15q-19.29,2.47-38.6,5.22c-19.45,2.73-38.9,5.57-58.34,8.31-18.78,2.48-37.56,5.15-56.34,7.79Q76.25,226.06,54,229.13c-8.88,1.2-17.75,1.63-26.34.06-7.7-1.4-13.17-5.65-14.49-14.23-1.34-8.74,1.93-16.22,9.28-21.77,2.19-1.64,1.3-2.26.16-3.37C-22.8,145.73,4.65,55.91,68.87,32.44A68.72,68.72,0,0,1,83,28.94Q179,15.48,275.09,2C285.76.5,296.42-.4,306.91.47c12.4,1,19.1,8.85,17.89,20.58a22,22,0,0,1-8.7,15.45C314.05,38.13,313.62,38.89,315.48,40.65ZM81.56,170.57c19.29-2.71,38.72-16.32,47.23-36.38,10.51-24.78,26.4-45.5,45.58-63.6,7.91-7.46,16.36-14.19,24.7-21.46q-32.52,4.56-65,9.19-23.49,3.3-47,6.48c-21.7,3-36.82,16.08-46.85,37C28.68,125.89,34.16,152.88,52,164.61c8.63,5.67,19.06,7.42,29.55,5.94m216.6-43.42c10.19-22.07,5.69-47.39-9.4-59.5-9-7.23-20.68-9.61-32.47-7.95a62,62,0,0,0-47.56,37c-9.27,22.22-23.32,41.17-40.11,58-9.47,9.47-19.67,17.85-29.93,26.43l4.87-.69c24.11-3.42,48.22-7,72.34-10.35q17.38-2.44,34.77-4.75l.57-.08c21.88-3.07,37-16.52,46.92-38"/></clipPath><clipPath id="b1a33a9a-6d8d-46de-b050-b83172cfc913" transform="translate(0.38 0.37)"><path class="b8faeeeb-9013-4c53-94fe-d28d4356233f" d="M338.27,53.05c29,27.38,30.47,81.12-.33,121.87-16.67,22.05-37.21,35.41-62.26,38.93l-1.07.15q-19.29,2.48-38.6,5.22c-19.45,2.73-38.89,5.57-58.34,8.31-18.78,2.48-37.56,5.15-56.33,7.79q-22.31,3.13-44.6,6.17c-8.88,1.21-17.75,1.63-26.34.07-7.69-1.4-13.16-5.65-14.48-14.23-1.36-8.74,1.92-16.2,9.28-21.77,2.19-1.64,1.29-2.26.16-3.37C0,158.13,27.44,68.31,91.66,44.84a68.72,68.72,0,0,1,14.13-3.5q96-13.46,192.1-26.95c10.67-1.49,21.33-2.39,31.81-1.52,12.4,1,19.11,8.85,17.89,20.58a22,22,0,0,1-8.7,15.45C336.84,50.52,336.41,51.29,338.27,53.05ZM104.27,183c19.29-2.71,38.72-16.32,47.24-36.38,10.5-24.78,26.4-45.5,45.58-63.6,7.94-7.48,16.39-14.2,24.73-21.44q-32.52,4.58-65,9.2-23.49,3.3-47,6.48c-21.7,3-36.82,16.08-46.85,37C51.38,138.32,56.86,165.31,74.7,177c8.63,5.67,19.07,7.41,29.55,5.94m216.63-43.42c10.19-22.07,5.69-47.39-9.39-59.5-9-7.24-20.69-9.61-32.48-8a62.07,62.07,0,0,0-47.56,37c-9.26,22.22-23.31,41.17-40.11,57.95-9.47,9.47-19.66,17.85-29.93,26.43l4.87-.69c24.11-3.42,48.22-7,72.34-10.35Q256,180,273.39,177.65l.58-.08c21.87-3.08,37-16.52,46.91-38"/></clipPath><clipPath id="a8cd206c-085b-4c3e-982e-72443b95fd77" transform="translate(0.38 0.37)"><path class="b8faeeeb-9013-4c53-94fe-d28d4356233f" d="M338.27,53.05c29,27.38,30.47,81.12-.33,121.87-16.67,22.05-37.21,35.41-62.26,38.93l-1.07.15q-19.29,2.48-38.6,5.22c-19.45,2.73-38.89,5.57-58.34,8.31l-22.79-12.4c19.44-2.74,38.89-5.58,58.34-8.31q19.31-2.72,38.6-5.22l1.07-.15c25.05-3.52,45.59-16.88,62.26-38.93,30.8-40.75,29.29-94.49.33-121.87Z"/></clipPath><clipPath id="e6c23af8-83d3-4eb0-974b-3aef4ba9d89a" transform="translate(0.38 0.37)"><path class="b8faeeeb-9013-4c53-94fe-d28d4356233f" d="M43.89,239.36,21.1,227c-4.2-2.28-7.07-6.13-8-12-1.34-8.74,1.93-16.22,9.28-21.77,2.19-1.64,1.3-2.26.16-3.37C-22.8,145.73,4.65,55.91,68.87,32.44A68.72,68.72,0,0,1,83,28.94Q179,15.48,275.09,2C285.76.5,296.42-.4,306.91.47a24,24,0,0,1,9.47,2.66l22.79,12.4a23.75,23.75,0,0,0-9.47-2.63c-10.48-.87-21.14,0-31.81,1.52q-96.06,13.43-192.1,27a68.72,68.72,0,0,0-14.13,3.5C27.44,68.31,0,158.13,45.36,202.19c1.13,1.11,2,1.73-.16,3.37-7.36,5.55-10.63,13-9.28,21.77C36.82,233.23,39.69,237.13,43.89,239.36Z"/></clipPath><clipPath id="b8da8e9f-9029-4d45-ad8b-056fc5338fe4" transform="translate(0.38 0.37)"><path class="b8faeeeb-9013-4c53-94fe-d28d4356233f" d="M21.1,227a21.78,21.78,0,0,0,6.51,2.2c8.59,1.57,17.46,1.14,26.34-.06q22.29-3,44.59-6.18c18.78-2.64,37.56-5.31,56.34-7.79l22.79,12.4c-18.78,2.48-37.56,5.15-56.33,7.79q-22.31,3.13-44.6,6.17c-8.88,1.21-17.75,1.63-26.34.07a21.78,21.78,0,0,1-6.51-2.2Z"/></clipPath><clipPath id="a34f2620-0b96-4d66-9290-0935a677f2c0" transform="translate(0.38 0.37)"><path class="b8faeeeb-9013-4c53-94fe-d28d4356233f" d="M339.17,15.5c6.21,3.38,9.28,9.7,8.42,18A22,22,0,0,1,338.89,49c-2.05,1.62-2.48,2.39-.62,4.15L315.48,40.7c-1.86-1.76-1.43-2.53.62-4.15a22,22,0,0,0,8.7-15.45c.85-8.25-2.21-14.57-8.42-18Z"/></clipPath><clipPath id="f7b6b199-cd84-4b48-bf8d-dfbd74412713" transform="translate(0.38 0.37)"><path class="b8faeeeb-9013-4c53-94fe-d28d4356233f" d="M104.31,183l-22.75-12.4c19.29-2.71,38.72-16.32,47.23-36.38,10.51-24.78,26.4-45.5,45.58-63.6,7.91-7.46,16.36-14.19,24.7-21.46l22.79,12.42c-8.34,7.24-16.79,14-24.73,21.44-19.18,18.1-35.08,38.82-45.58,63.6C143,166.65,123.56,180.26,104.31,183Z"/></clipPath><clipPath id="e4e81301-ac9d-43c5-a165-8efcdde75ae8" transform="translate(0.38 0.37)"><path class="b8faeeeb-9013-4c53-94fe-d28d4356233f" d="M77.43,178.63l-22.79-12.4c8.07,4.39,17.45,5.67,26.88,4.34L104.31,183C94.89,184.3,85.5,183,77.43,178.63Z"/></clipPath><clipPath id="ae96a6c9-7edd-4af1-9424-f7cb2e2bf93b" transform="translate(0.38 0.37)"><path class="b8faeeeb-9013-4c53-94fe-d28d4356233f" d="M54.64,166.23a28.12,28.12,0,0,1-2.67-1.6c-17.84-11.73-23.32-38.72-11.78-62.81,10-20.91,25.15-33.94,46.85-37q23.49-3.15,47-6.48,32.52-4.58,65-9.19l22.82,12.4q-32.52,4.58-65.05,9.2-23.49,3.3-47,6.48c-21.7,3-36.82,16.08-46.85,37C51.42,138.32,56.9,165.31,74.74,177c.87.58,1.77,1.11,2.67,1.6Z"/></clipPath><clipPath id="b198e14d-a43f-454a-bd6d-d1ba9223fe1d" transform="translate(0.38 0.37)"><path class="b8faeeeb-9013-4c53-94fe-d28d4356233f" d="M306.1,76.43c-8-4.38-17.5-5.67-27-4.33a62.07,62.07,0,0,0-47.56,37c-9.26,22.22-23.31,41.17-40.11,58-9.47,9.47-19.66,17.85-29.93,26.43l-22.79-12.4c10.26-8.58,20.46-17,29.93-26.43,16.79-16.78,30.84-35.73,40.11-57.95a62,62,0,0,1,47.56-37c9.53-1.34,19,0,27,4.33Z"/></clipPath><clipPath id="b3724d98-7198-4ab8-9404-6f5ca8693638" transform="translate(0.38 0.37)"><path class="b8faeeeb-9013-4c53-94fe-d28d4356233f" d="M283.31,64l22.79,12.4a36.65,36.65,0,0,1,5.46,3.62c15.08,12.11,19.58,37.43,9.39,59.5l-22.8-12.42c10.19-22.07,5.69-47.39-9.4-59.5A36.61,36.61,0,0,0,283.31,64Z"/></clipPath><clipPath id="b7c42742-d29b-4614-8983-695b1d4cb8df" transform="translate(0.38 0.37)"><path class="b8faeeeb-9013-4c53-94fe-d28d4356233f" d="M161.47,193.45l-22.79-12.4,4.87-.69c24.11-3.42,48.22-7,72.34-10.35q17.38-2.44,34.77-4.75l.57-.08c21.88-3.07,37-16.52,46.92-38l22.79,12.4c-9.94,21.51-25,35-46.91,38l-.58.08q-17.38,2.29-34.77,4.75c-24.12,3.39-48.23,6.93-72.34,10.35Z"/></clipPath><clipPath id="adb70346-d1a7-4458-9d6f-3d42f2b961cd" transform="translate(0.38 0.37)"><path class="b8faeeeb-9013-4c53-94fe-d28d4356233f" d="M86.68,64.88c16-2.16,31.68-4.33,47.34-6.53q32.52-4.58,65-9.19c-8.34,7.24-16.79,14-24.74,21.43-19.18,18.1-35.07,38.82-45.58,63.6-8.51,20.06-27.94,33.67-47.23,36.38-10.49,1.48-20.92-.27-29.55-5.94C34.08,152.9,28.6,125.91,40.14,101.82,50.22,80.91,65.34,67.88,86.68,64.88Z"/></clipPath><clipPath id="b791ddc2-c6ff-46c8-a888-f00533340fbc" transform="translate(0.38 0.37)"><path class="b8faeeeb-9013-4c53-94fe-d28d4356233f" d="M109.48,77.28c16-2.16,31.67-4.33,47.33-6.53q32.53-4.57,65.05-9.2c-8.34,7.24-16.79,14-24.73,21.44-19.18,18.14-35.08,38.82-45.57,63.59-8.52,20.07-28,33.68-47.24,36.39-10.48,1.47-20.92-.27-29.55-5.94C56.93,165.3,51.45,138.31,63,114.22,73,93.31,88.13,80.28,109.48,77.28Z"/></clipPath><clipPath id="abc18ef1-d22b-4abf-8039-f6bf61d2bfb3" transform="translate(0.38 0.37)"><path class="b8faeeeb-9013-4c53-94fe-d28d4356233f" d="M109.48,77.28l-22.8-12.4c16-2.16,31.68-4.33,47.34-6.53q32.52-4.58,65-9.19l22.84,12.39q-32.52,4.58-65.05,9.2C141.15,73,125.49,75.13,109.48,77.28Z"/></clipPath><clipPath id="f12a3bcd-84ff-4159-bc24-8e72818a4223" transform="translate(0.38 0.37)"><path class="b8faeeeb-9013-4c53-94fe-d28d4356233f" d="M77.43,178.63l-22.79-12.4a28.12,28.12,0,0,1-2.67-1.6c-17.84-11.73-23.32-38.72-11.78-62.81,10-20.91,25.15-33.94,46.49-36.94l22.8,12.4c-21.35,3-36.47,16-46.49,36.94C51.44,138.31,56.92,165.3,74.76,177,75.63,177.61,76.56,178.13,77.43,178.63Z"/></clipPath><clipPath id="b384759f-564d-4d0e-82d7-8b7346550d8a" transform="translate(0.38 0.37)"><path class="b8faeeeb-9013-4c53-94fe-d28d4356233f" d="M54.64,166.23c8.07,4.39,17.45,5.67,26.88,4.34,19.29-2.71,38.72-16.32,47.23-36.38,10.51-24.78,26.4-45.5,45.58-63.6,7.95-7.46,16.4-14.19,24.74-21.46l22.79,12.42c-8.34,7.24-16.79,14-24.73,21.44-19.18,18.14-35.08,38.82-45.57,63.59-8.52,20.07-28,33.68-47.24,36.39a43.6,43.6,0,0,1-26.88-4.34Z"/></clipPath><clipPath id="b18a83de-0be4-4fe3-aa38-8acc8ee5d1b5" transform="translate(0.38 0.37)"><path class="b8faeeeb-9013-4c53-94fe-d28d4356233f" d="M256.28,59.7c11.79-1.66,23.46.72,32.47,8,15.09,12.11,19.59,37.43,9.4,59.5-9.94,21.51-25,35-46.92,38l-.57.08q-17.39,2.29-34.77,4.75c-24.12,3.39-48.23,6.93-72.34,10.35l-4.87.69c10.26-8.58,20.46-17,29.93-26.43,16.79-16.78,30.84-35.73,40.11-57.95A62.08,62.08,0,0,1,256.28,59.7Z"/></clipPath><clipPath id="b5be5307-233e-44c2-8c29-bab49e9b00af" transform="translate(0.38 0.37)"><path class="b8faeeeb-9013-4c53-94fe-d28d4356233f" d="M279.07,72.13c11.79-1.66,23.47.71,32.48,8,15.08,12.11,19.58,37.43,9.39,59.5-9.94,21.51-25,35-46.91,38l-.58.08q-17.38,2.29-34.77,4.75c-24.11,3.39-48.23,6.93-72.34,10.35l-4.87.69c10.27-8.58,20.46-17,29.94-26.43,16.79-16.78,30.84-35.73,40.1-57.95A62.07,62.07,0,0,1,279.07,72.13Z"/></clipPath><clipPath id="f6935f05-55ba-499a-a98a-f456103eb548" transform="translate(0.38 0.37)"><path class="b8faeeeb-9013-4c53-94fe-d28d4356233f" d="M306.1,76.43a36.65,36.65,0,0,1,5.46,3.62c15.08,12.11,19.58,37.43,9.39,59.5-9.94,21.51-25,35-46.91,38l-.58.08q-17.38,2.3-34.77,4.75c-24.11,3.39-48.23,6.93-72.34,10.35l-4.87.69L138.69,181l4.87-.69c24.11-3.42,48.22-7,72.34-10.35q17.39-2.44,34.77-4.75l.57-.08c21.88-3.07,37-16.52,46.92-38,10.19-22.07,5.69-47.39-9.4-59.5A36,36,0,0,0,283.32,64Z"/></clipPath><clipPath id="b2cc3809-ace3-4d57-a8cf-fe08cced1801" transform="translate(0.38 0.37)"><path class="b8faeeeb-9013-4c53-94fe-d28d4356233f" d="M283.31,64l22.79,12.4c-8-4.38-17.5-5.67-27-4.33L256.31,59.7C265.81,58.36,275.27,59.65,283.31,64Z"/></clipPath><clipPath id="e4ab9505-9fdb-4666-b07a-61500c33f397" transform="translate(0.38 0.37)"><path class="b8faeeeb-9013-4c53-94fe-d28d4356233f" d="M161.47,193.45l-22.79-12.4c10.26-8.58,20.46-17,29.93-26.43,16.79-16.78,30.84-35.73,40.11-57.95a62,62,0,0,1,47.56-37l22.79,12.46a62.07,62.07,0,0,0-47.56,37c-9.26,22.22-23.31,41.17-40.1,58C181.93,176.49,171.74,184.87,161.47,193.45Z"/></clipPath></defs><g id="e8175226-cc7b-45a9-aa2d-7e30a3ded405" data-name="a29ac834-bc83-439d-920c-7bda780f625d"><g id="b58eb5ae-6f92-4442-ae33-7014ddf8eea1" data-name="f847b7b7-076a-4274-bbe4-ce3fff7a97b2"><g class="a2c3c35a-f36e-4de8-bd97-4cf9e8d439f4"><path class="efc99239-3876-4ae0-a819-ea735174d42a" d="M315.48,40.65c29,27.38,30.47,81.12-.33,121.87-16.67,22-37.21,35.41-62.26,38.93l-1.07.15q-19.29,2.47-38.6,5.22c-19.45,2.73-38.9,5.57-58.34,8.31-18.78,2.48-37.56,5.15-56.34,7.79Q76.25,226.06,54,229.13c-8.88,1.2-17.75,1.63-26.34.06-7.7-1.4-13.17-5.65-14.49-14.23-1.34-8.74,1.93-16.22,9.28-21.77,2.19-1.64,1.3-2.26.16-3.37C-22.8,145.73,4.65,55.91,68.87,32.44A68.72,68.72,0,0,1,83,28.94Q179,15.48,275.09,2C285.76.5,296.42-.4,306.91.47c12.4,1,19.1,8.85,17.89,20.58a22,22,0,0,1-8.7,15.45C314.05,38.13,313.62,38.89,315.48,40.65ZM81.56,170.57c19.29-2.71,38.72-16.32,47.23-36.38,10.51-24.78,26.4-45.5,45.58-63.6,7.91-7.46,16.36-14.19,24.7-21.46q-32.52,4.56-65,9.19-23.49,3.3-47,6.48c-21.7,3-36.82,16.08-46.85,37C28.68,125.89,34.16,152.88,52,164.61c8.63,5.67,19.06,7.42,29.55,5.94m216.6-43.42c10.19-22.07,5.69-47.39-9.4-59.5-9-7.23-20.68-9.61-32.47-7.95a62,62,0,0,0-47.56,37c-9.27,22.22-23.32,41.17-40.11,58-9.47,9.47-19.67,17.85-29.93,26.43l4.87-.69c24.11-3.42,48.22-7,72.34-10.35q17.38-2.44,34.77-4.75l.57-.08c21.88-3.07,37-16.52,46.92-38" transform="translate(0.38 0.37)"/></g><path class="b8faeeeb-9013-4c53-94fe-d28d4356233f" d="M315.48,40.65c29,27.38,30.47,81.12-.33,121.87-16.67,22-37.21,35.41-62.26,38.93l-1.07.15q-19.29,2.47-38.6,5.22c-19.45,2.73-38.9,5.57-58.34,8.31-18.78,2.48-37.56,5.15-56.34,7.79Q76.25,226.06,54,229.13c-8.88,1.2-17.75,1.63-26.34.06-7.7-1.4-13.17-5.65-14.49-14.23-1.34-8.74,1.93-16.22,9.28-21.77,2.19-1.64,1.3-2.26.16-3.37C-22.8,145.73,4.65,55.91,68.87,32.44A68.72,68.72,0,0,1,83,28.94Q179,15.48,275.09,2C285.76.5,296.42-.4,306.91.47c12.4,1,19.1,8.85,17.89,20.58a22,22,0,0,1-8.7,15.45C314.05,38.13,313.62,38.89,315.48,40.65ZM81.56,170.57c19.29-2.71,38.72-16.32,47.23-36.38,10.51-24.78,26.4-45.5,45.58-63.6,7.91-7.46,16.36-14.19,24.7-21.46q-32.52,4.56-65,9.19-23.49,3.3-47,6.48c-21.7,3-36.82,16.08-46.85,37C28.68,125.89,34.16,152.88,52,164.61c8.63,5.67,19.06,7.42,29.55,5.94m216.6-43.42c10.19-22.07,5.69-47.39-9.4-59.5-9-7.23-20.68-9.61-32.47-7.95a62,62,0,0,0-47.56,37c-9.27,22.22-23.32,41.17-40.11,58-9.47,9.47-19.67,17.85-29.93,26.43l4.87-.69c24.11-3.42,48.22-7,72.34-10.35q17.38-2.44,34.77-4.75l.57-.08c21.88-3.07,37-16.52,46.92-38" transform="translate(0.38 0.37)"/><g class="bf8ac6ae-b8a7-48d1-a0f8-7cca79b8fd47"><path class="efc99239-3876-4ae0-a819-ea735174d42a" d="M338.27,53.05c29,27.38,30.47,81.12-.33,121.87-16.67,22.05-37.21,35.41-62.26,38.93l-1.07.15q-19.29,2.48-38.6,5.22c-19.45,2.73-38.89,5.57-58.34,8.31-18.78,2.48-37.56,5.15-56.33,7.79q-22.31,3.13-44.6,6.17c-8.88,1.21-17.75,1.63-26.34.07-7.69-1.4-13.16-5.65-14.48-14.23-1.36-8.74,1.92-16.2,9.28-21.77,2.19-1.64,1.29-2.26.16-3.37C0,158.13,27.44,68.31,91.66,44.84a68.72,68.72,0,0,1,14.13-3.5q96-13.46,192.1-26.95c10.67-1.49,21.33-2.39,31.81-1.52,12.4,1,19.11,8.85,17.89,20.58a22,22,0,0,1-8.7,15.45C336.84,50.52,336.41,51.29,338.27,53.05ZM104.27,183c19.29-2.71,38.72-16.32,47.24-36.38,10.5-24.78,26.4-45.5,45.58-63.6,7.94-7.48,16.39-14.2,24.73-21.44q-32.52,4.58-65,9.2-23.49,3.3-47,6.48c-21.7,3-36.82,16.08-46.85,37C51.38,138.32,56.86,165.31,74.7,177c8.63,5.67,19.07,7.41,29.55,5.94m216.63-43.42c10.19-22.07,5.69-47.39-9.39-59.5-9-7.24-20.69-9.61-32.48-8a62.07,62.07,0,0,0-47.56,37c-9.26,22.22-23.31,41.17-40.11,57.95-9.47,9.47-19.66,17.85-29.93,26.43l4.87-.69c24.11-3.42,48.22-7,72.34-10.35Q256,180,273.39,177.65l.58-.08c21.87-3.08,37-16.52,46.91-38" transform="translate(0.38 0.37)"/></g><path class="b8faeeeb-9013-4c53-94fe-d28d4356233f" d="M338.27,53.05c29,27.38,30.47,81.12-.33,121.87-16.67,22.05-37.21,35.41-62.26,38.93l-1.07.15q-19.29,2.48-38.6,5.22c-19.45,2.73-38.89,5.57-58.34,8.31-18.78,2.48-37.56,5.15-56.33,7.79q-22.31,3.13-44.6,6.17c-8.88,1.21-17.75,1.63-26.34.07-7.69-1.4-13.16-5.65-14.48-14.23-1.36-8.74,1.92-16.2,9.28-21.77,2.19-1.64,1.29-2.26.16-3.37C0,158.13,27.44,68.31,91.66,44.84a68.72,68.72,0,0,1,14.13-3.5q96-13.46,192.1-26.95c10.67-1.49,21.33-2.39,31.81-1.52,12.4,1,19.11,8.85,17.89,20.58a22,22,0,0,1-8.7,15.45C336.84,50.52,336.41,51.29,338.27,53.05ZM104.27,183c19.29-2.71,38.72-16.32,47.24-36.38,10.5-24.78,26.4-45.5,45.58-63.6,7.94-7.48,16.39-14.2,24.73-21.44q-32.52,4.58-65,9.2-23.49,3.3-47,6.48c-21.7,3-36.82,16.08-46.85,37C51.38,138.32,56.86,165.31,74.7,177c8.63,5.67,19.07,7.41,29.55,5.94m216.63-43.42c10.19-22.07,5.69-47.39-9.39-59.5-9-7.24-20.69-9.61-32.48-8a62.07,62.07,0,0,0-47.56,37c-9.26,22.22-23.31,41.17-40.11,57.95-9.47,9.47-19.66,17.85-29.93,26.43l4.87-.69c24.11-3.42,48.22-7,72.34-10.35Q256,180,273.39,177.65l.58-.08c21.87-3.08,37-16.52,46.91-38" transform="translate(0.38 0.37)"/><g class="fb2638a8-2c02-4b43-85ea-955f91b12137"><path class="efc99239-3876-4ae0-a819-ea735174d42a" d="M338.27,53.05l-22.79-12.4c29,27.38,30.47,81.12-.33,121.87l22.79,12.4C368.74,134.13,367.23,80.43,338.27,53.05Z" transform="translate(0.38 0.37)"/><line class="efc99239-3876-4ae0-a819-ea735174d42a" x1="358.28" y1="88.12" x2="335.49" y2="75.72"/><line class="efc99239-3876-4ae0-a819-ea735174d42a" x1="358.53" y1="131.66" x2="335.74" y2="119.26"/><path class="efc99239-3876-4ae0-a819-ea735174d42a" d="M275.68,213.85c25.05-3.52,45.59-16.88,62.26-38.93l-22.79-12.4c-16.67,22-37.21,35.41-62.26,38.93" transform="translate(0.38 0.37)"/><line class="efc99239-3876-4ae0-a819-ea735174d42a" x1="320.34" y1="194.4" x2="297.55" y2="182"/><line class="efc99239-3876-4ae0-a819-ea735174d42a" x1="299.63" y1="207.46" x2="276.84" y2="195.06"/><path class="efc99239-3876-4ae0-a819-ea735174d42a" d="M252.89,201.45l-1.07.15" transform="translate(0.38 0.37)"/><path class="efc99239-3876-4ae0-a819-ea735174d42a" d="M274.61,214l1.07-.15" transform="translate(0.38 0.37)"/><path class="efc99239-3876-4ae0-a819-ea735174d42a" d="M254.76,206.43" transform="translate(0.38 0.37)"/><path class="efc99239-3876-4ae0-a819-ea735174d42a" d="M277.56,218.83" transform="translate(0.38 0.37)"/><line class="efc99239-3876-4ae0-a819-ea735174d42a" x1="275.35" y1="214.32" x2="252.56" y2="201.92"/><path class="efc99239-3876-4ae0-a819-ea735174d42a" d="M251.82,201.6q-19.29,2.47-38.6,5.22L236,219.22q19.31-2.72,38.6-5.22" transform="translate(0.38 0.37)"/><line class="efc99239-3876-4ae0-a819-ea735174d42a" x1="262.13" y1="216.05" x2="239.33" y2="203.65"/><line class="efc99239-3876-4ae0-a819-ea735174d42a" x1="249.26" y1="217.79" x2="226.47" y2="205.4"/><path class="efc99239-3876-4ae0-a819-ea735174d42a" d="M236,219.22l-22.79-12.4c-19.45,2.73-38.9,5.57-58.34,8.31l22.79,12.4C197.12,224.79,216.56,222,236,219.22Z" transform="translate(0.38 0.37)"/><line class="efc99239-3876-4ae0-a819-ea735174d42a" x1="216.94" y1="222.35" x2="194.15" y2="209.95"/><line class="efc99239-3876-4ae0-a819-ea735174d42a" x1="197.5" y1="225.13" x2="174.7" y2="212.73"/><path class="efc99239-3876-4ae0-a819-ea735174d42a" d="M338.27,53.05c29,27.38,30.47,81.12-.33,121.87-16.67,22.05-37.21,35.41-62.26,38.93l-1.07.15q-19.29,2.48-38.6,5.22c-19.45,2.73-38.89,5.57-58.34,8.31l-22.79-12.4c19.44-2.74,38.89-5.58,58.34-8.31q19.31-2.72,38.6-5.22l1.07-.15c25.05-3.52,45.59-16.88,62.26-38.93,30.8-40.75,29.29-94.49.33-121.87Z" transform="translate(0.38 0.37)"/></g><path class="b8faeeeb-9013-4c53-94fe-d28d4356233f" d="M338.27,53.05c29,27.38,30.47,81.12-.33,121.87-16.67,22.05-37.21,35.41-62.26,38.93l-1.07.15q-19.29,2.48-38.6,5.22c-19.45,2.73-38.89,5.57-58.34,8.31l-22.79-12.4c19.44-2.74,38.89-5.58,58.34-8.31q19.31-2.72,38.6-5.22l1.07-.15c25.05-3.52,45.59-16.88,62.26-38.93,30.8-40.75,29.29-94.49.33-121.87Z" transform="translate(0.38 0.37)"/><g class="b895ff2a-65e6-45b2-8145-4aa30d6bf44f"><path class="efc99239-3876-4ae0-a819-ea735174d42a" d="M50.4,241.56,27.61,229.13c-7.7-1.4-13.17-5.65-14.49-14.23l22.8,12.4C37.24,235.91,42.71,240.13,50.4,241.56Z" transform="translate(0.38 0.37)"/><line class="efc99239-3876-4ae0-a819-ea735174d42a" x1="43.9" y1="239.52" x2="21.1" y2="227.12"/><line class="efc99239-3876-4ae0-a819-ea735174d42a" x1="38.93" y1="234.89" x2="16.13" y2="222.49"/><path class="efc99239-3876-4ae0-a819-ea735174d42a" d="M35.92,227.33l-22.8-12.4c-1.34-8.74,1.93-16.22,9.28-21.77l22.8,12.4C37.84,211.13,34.56,218.59,35.92,227.33Z" transform="translate(0.38 0.37)"/><line class="efc99239-3876-4ae0-a819-ea735174d42a" x1="36.47" y1="219.4" x2="13.68" y2="207"/><line class="efc99239-3876-4ae0-a819-ea735174d42a" x1="39.6" y1="212.09" x2="16.81" y2="199.69"/><path class="efc99239-3876-4ae0-a819-ea735174d42a" d="M45.2,205.56,22.4,193.13c2.19-1.64,1.3-2.26.16-3.37l22.8,12.4C46.49,203.3,47.39,203.92,45.2,205.56Z" transform="translate(0.38 0.37)"/><line class="efc99239-3876-4ae0-a819-ea735174d42a" x1="46.84" y1="204.57" x2="24.05" y2="192.17"/><line class="efc99239-3876-4ae0-a819-ea735174d42a" x1="46.68" y1="203.56" x2="23.89" y2="191.16"/><path class="efc99239-3876-4ae0-a819-ea735174d42a" d="M45.36,202.19l-22.8-12.4C-22.8,145.73,4.65,55.91,68.87,32.44l22.79,12.4C27.44,68.31,0,158.13,45.36,202.19Z" transform="translate(0.38 0.37)"/><line class="efc99239-3876-4ae0-a819-ea735174d42a" x1="23.31" y1="147.39" x2="0.51" y2="134.99"/><line class="efc99239-3876-4ae0-a819-ea735174d42a" x1="41.41" y1="86.64" x2="18.62" y2="74.24"/><path class="efc99239-3876-4ae0-a819-ea735174d42a" d="M91.66,44.84,68.87,32.44A68.72,68.72,0,0,1,83,28.94l22.79,12.4A68.72,68.72,0,0,0,91.66,44.84Z" transform="translate(0.38 0.37)"/><line class="efc99239-3876-4ae0-a819-ea735174d42a" x1="96.71" y1="43.69" x2="73.91" y2="31.29"/><line class="efc99239-3876-4ae0-a819-ea735174d42a" x1="101.42" y1="42.53" x2="78.63" y2="30.13"/><path class="efc99239-3876-4ae0-a819-ea735174d42a" d="M105.79,41.34,83,28.94Q179,15.48,275.09,2l22.8,12.4Q201.83,27.82,105.79,41.34Z" transform="translate(0.38 0.37)"/><line class="efc99239-3876-4ae0-a819-ea735174d42a" x1="170.2" y1="32.72" x2="147.4" y2="20.32"/><line class="efc99239-3876-4ae0-a819-ea735174d42a" x1="234.23" y1="23.73" x2="211.44" y2="11.33"/><path class="efc99239-3876-4ae0-a819-ea735174d42a" d="M297.89,14.39,275.09,2C285.76.5,296.42-.4,306.91.47l22.79,12.4C319.22,12,308.56,12.9,297.89,14.39Z" transform="translate(0.38 0.37)"/><line class="efc99239-3876-4ae0-a819-ea735174d42a" x1="308.93" y1="13.5" x2="286.13" y2="1.1"/><line class="efc99239-3876-4ae0-a819-ea735174d42a" x1="319.54" y1="12.91" x2="296.75" y2="0.51"/><path class="efc99239-3876-4ae0-a819-ea735174d42a" d="M329.7,12.87,306.91.47c12.4,1,19.1,8.85,17.89,20.58l22.76,12.4C348.81,21.72,342.1,13.89,329.7,12.87Z" transform="translate(0.38 0.37)"/><path class="efc99239-3876-4ae0-a819-ea735174d42a" d="M43.89,239.36,21.1,227c-4.2-2.28-7.07-6.13-8-12-1.34-8.74,1.93-16.22,9.28-21.77,2.19-1.64,1.3-2.26.16-3.37C-22.8,145.73,4.65,55.91,68.87,32.44A68.72,68.72,0,0,1,83,28.94Q179,15.48,275.09,2C285.76.5,296.42-.4,306.91.47a24,24,0,0,1,9.47,2.66l22.79,12.4a23.75,23.75,0,0,0-9.47-2.63c-10.48-.87-21.14,0-31.81,1.52q-96.06,13.43-192.1,27a68.72,68.72,0,0,0-14.13,3.5C27.44,68.31,0,158.13,45.36,202.19c1.13,1.11,2,1.73-.16,3.37-7.36,5.55-10.63,13-9.28,21.77C36.82,233.23,39.69,237.13,43.89,239.36Z" transform="translate(0.38 0.37)"/></g><path class="b8faeeeb-9013-4c53-94fe-d28d4356233f" d="M43.89,239.36,21.1,227c-4.2-2.28-7.07-6.13-8-12-1.34-8.74,1.93-16.22,9.28-21.77,2.19-1.64,1.3-2.26.16-3.37C-22.8,145.73,4.65,55.91,68.87,32.44A68.72,68.72,0,0,1,83,28.94Q179,15.48,275.09,2C285.76.5,296.42-.4,306.91.47a24,24,0,0,1,9.47,2.66l22.79,12.4a23.75,23.75,0,0,0-9.47-2.63c-10.48-.87-21.14,0-31.81,1.52q-96.06,13.43-192.1,27a68.72,68.72,0,0,0-14.13,3.5C27.44,68.31,0,158.13,45.36,202.19c1.13,1.11,2,1.73-.16,3.37-7.36,5.55-10.63,13-9.28,21.77C36.82,233.23,39.69,237.13,43.89,239.36Z" transform="translate(0.38 0.37)"/><g class="e47c3546-00a9-4137-81bf-ff857dbcbe79"><path class="efc99239-3876-4ae0-a819-ea735174d42a" d="M177.67,227.53l-22.79-12.4c-18.78,2.48-37.56,5.15-56.34,7.79l22.8,12.4C140.11,232.68,158.89,230,177.67,227.53Z" transform="translate(0.38 0.37)"/><line class="efc99239-3876-4ae0-a819-ea735174d42a" x1="159.27" y1="230.43" x2="136.48" y2="218.03"/><line class="efc99239-3876-4ae0-a819-ea735174d42a" x1="140.49" y1="233.04" x2="117.7" y2="220.64"/><path class="efc99239-3876-4ae0-a819-ea735174d42a" d="M121.34,235.32l-22.78-12.4Q76.26,226.06,54,229.13l22.79,12.39Q99,238.48,121.34,235.32Z" transform="translate(0.38 0.37)"/><line class="efc99239-3876-4ae0-a819-ea735174d42a" x1="106.85" y1="237.77" x2="84.06" y2="225.37"/><line class="efc99239-3876-4ae0-a819-ea735174d42a" x1="91.98" y1="239.83" x2="69.19" y2="227.43"/><path class="efc99239-3876-4ae0-a819-ea735174d42a" d="M50.4,241.59c8.59,1.54,17.46,1.11,26.34-.1L54,229.13c-8.88,1.2-17.75,1.63-26.34.06" transform="translate(0.38 0.37)"/><line class="efc99239-3876-4ae0-a819-ea735174d42a" x1="68.25" y1="242.76" x2="45.46" y2="230.36"/><line class="efc99239-3876-4ae0-a819-ea735174d42a" x1="59.45" y1="242.87" x2="36.66" y2="230.47"/><path class="efc99239-3876-4ae0-a819-ea735174d42a" d="M27.61,229.13c-7.7-1.4-13.17-5.65-14.49-14.23l22.8,12.4c1.32,8.61,6.79,12.83,14.48,14.26" transform="translate(0.38 0.37)"/><path class="efc99239-3876-4ae0-a819-ea735174d42a" d="M21.1,227a21.78,21.78,0,0,0,6.51,2.2c8.59,1.57,17.46,1.14,26.34-.06q22.29-3,44.59-6.18c18.78-2.64,37.56-5.31,56.34-7.79l22.79,12.4c-18.78,2.48-37.56,5.15-56.33,7.79q-22.31,3.13-44.6,6.17c-8.88,1.21-17.75,1.63-26.34.07a21.78,21.78,0,0,1-6.51-2.2Z" transform="translate(0.38 0.37)"/></g><path class="b8faeeeb-9013-4c53-94fe-d28d4356233f" d="M21.1,227a21.78,21.78,0,0,0,6.51,2.2c8.59,1.57,17.46,1.14,26.34-.06q22.29-3,44.59-6.18c18.78-2.64,37.56-5.31,56.34-7.79l22.79,12.4c-18.78,2.48-37.56,5.15-56.33,7.79q-22.31,3.13-44.6,6.17c-8.88,1.21-17.75,1.63-26.34.07a21.78,21.78,0,0,1-6.51-2.2Z" transform="translate(0.38 0.37)"/><g class="b52bbf31-4120-450b-a120-233bb7163580"><path class="efc99239-3876-4ae0-a819-ea735174d42a" d="M329.7,12.87,306.91.47c12.4,1,19.1,8.85,17.89,20.58l22.76,12.4C348.81,21.72,342.1,13.89,329.7,12.87Z" transform="translate(0.38 0.37)"/><line class="efc99239-3876-4ae0-a819-ea735174d42a" x1="340.5" y1="16.42" x2="317.71" y2="4.02"/><line class="efc99239-3876-4ae0-a819-ea735174d42a" x1="346.63" y1="23.49" x2="323.83" y2="11.09"/><path class="efc99239-3876-4ae0-a819-ea735174d42a" d="M347.56,33.45l-22.79-12.4a22,22,0,0,1-8.7,15.45l22.79,12.4A22,22,0,0,0,347.56,33.45Z" transform="translate(0.38 0.37)"/><line class="efc99239-3876-4ae0-a819-ea735174d42a" x1="346.52" y1="39.81" x2="323.72" y2="27.41"/><line class="efc99239-3876-4ae0-a819-ea735174d42a" x1="343.58" y1="44.96" x2="320.78" y2="32.56"/><path class="efc99239-3876-4ae0-a819-ea735174d42a" d="M338.89,48.9,316.1,36.5c-2.05,1.62-2.48,2.39-.62,4.15l22.79,12.4C336.41,51.29,336.84,50.52,338.89,48.9Z" transform="translate(0.38 0.37)"/><line class="efc99239-3876-4ae0-a819-ea735174d42a" x1="337.79" y1="50.67" x2="314.99" y2="38.27"/><line class="efc99239-3876-4ae0-a819-ea735174d42a" x1="337.53" y1="51.92" x2="314.74" y2="39.52"/><path class="efc99239-3876-4ae0-a819-ea735174d42a" d="M339.17,15.5c6.21,3.38,9.28,9.7,8.42,18A22,22,0,0,1,338.89,49c-2.05,1.62-2.48,2.39-.62,4.15L315.48,40.7c-1.86-1.76-1.43-2.53.62-4.15a22,22,0,0,0,8.7-15.45c.85-8.25-2.21-14.57-8.42-18Z" transform="translate(0.38 0.37)"/></g><path class="b8faeeeb-9013-4c53-94fe-d28d4356233f" d="M339.17,15.5c6.21,3.38,9.28,9.7,8.42,18A22,22,0,0,1,338.89,49c-2.05,1.62-2.48,2.39-.62,4.15L315.48,40.7c-1.86-1.76-1.43-2.53.62-4.15a22,22,0,0,0,8.7-15.45c.85-8.25-2.21-14.57-8.42-18Z" transform="translate(0.38 0.37)"/><g class="e217fd2d-8c5d-4a3b-8a97-e40bedff3ad9"><path class="efc99239-3876-4ae0-a819-ea735174d42a" d="M104.31,183l-22.75-12.4c19.29-2.71,38.72-16.32,47.23-36.38l22.8,12.4C143,166.65,123.56,180.26,104.31,183Z" transform="translate(0.38 0.37)"/><line class="efc99239-3876-4ae0-a819-ea735174d42a" x1="123.62" y1="177.16" x2="100.82" y2="164.76"/><line class="efc99239-3876-4ae0-a819-ea735174d42a" x1="140.18" y1="164.7" x2="117.39" y2="152.3"/><path class="efc99239-3876-4ae0-a819-ea735174d42a" d="M151.56,146.59l-22.8-12.4c10.51-24.78,26.4-45.5,45.58-63.6L197.14,83C178,101.13,162.05,121.81,151.56,146.59Z" transform="translate(0.38 0.37)"/><line class="efc99239-3876-4ae0-a819-ea735174d42a" x1="164.15" y1="123.47" x2="141.35" y2="111.07"/><line class="efc99239-3876-4ae0-a819-ea735174d42a" x1="179.5" y1="102.38" x2="156.7" y2="89.98"/><path class="efc99239-3876-4ae0-a819-ea735174d42a" d="M197.13,83l-22.8-12.4c7.95-7.46,16.4-14.19,24.74-21.46l22.79,12.42C213.56,68.79,205.07,75.51,197.13,83Z" transform="translate(0.38 0.37)"/><line class="efc99239-3876-4ae0-a819-ea735174d42a" x1="205.6" y1="76.08" x2="182.8" y2="63.68"/><line class="efc99239-3876-4ae0-a819-ea735174d42a" x1="213.89" y1="69.03" x2="191.09" y2="56.63"/><path class="efc99239-3876-4ae0-a819-ea735174d42a" d="M104.31,183l-22.75-12.4c19.29-2.71,38.72-16.32,47.23-36.38,10.51-24.78,26.4-45.5,45.58-63.6,7.91-7.46,16.36-14.19,24.7-21.46l22.79,12.42c-8.34,7.24-16.79,14-24.73,21.44-19.18,18.1-35.08,38.82-45.58,63.6C143,166.65,123.56,180.26,104.31,183Z" transform="translate(0.38 0.37)"/></g><path class="b8faeeeb-9013-4c53-94fe-d28d4356233f" d="M104.31,183l-22.75-12.4c19.29-2.71,38.72-16.32,47.23-36.38,10.51-24.78,26.4-45.5,45.58-63.6,7.91-7.46,16.36-14.19,24.7-21.46l22.79,12.42c-8.34,7.24-16.79,14-24.73,21.44-19.18,18.1-35.08,38.82-45.58,63.6C143,166.65,123.56,180.26,104.31,183Z" transform="translate(0.38 0.37)"/><g class="ae6f27e5-08be-44aa-9dae-0981cae9e889"><path class="efc99239-3876-4ae0-a819-ea735174d42a" d="M74.76,177,52,164.63c8.63,5.67,19.06,7.42,29.55,5.94L104.31,183C93.83,184.44,83.39,182.7,74.76,177Z" transform="translate(0.38 0.37)"/><path class="efc99239-3876-4ae0-a819-ea735174d42a" d="M61.13,169" transform="translate(0.38 0.37)"/><path class="efc99239-3876-4ae0-a819-ea735174d42a" d="M83.93,181.41" transform="translate(0.38 0.37)"/><line class="efc99239-3876-4ae0-a819-ea735174d42a" x1="94.29" y1="183.71" x2="71.49" y2="171.31"/><path class="efc99239-3876-4ae0-a819-ea735174d42a" d="M77.43,178.63l-22.79-12.4c8.07,4.39,17.45,5.67,26.88,4.34L104.31,183C94.89,184.3,85.5,183,77.43,178.63Z" transform="translate(0.38 0.37)"/></g><path class="b8faeeeb-9013-4c53-94fe-d28d4356233f" d="M77.43,178.63l-22.79-12.4c8.07,4.39,17.45,5.67,26.88,4.34L104.31,183C94.89,184.3,85.5,183,77.43,178.63Z" transform="translate(0.38 0.37)"/><g class="ad5ba184-68a2-4140-93d3-6e635b11a183"><path class="efc99239-3876-4ae0-a819-ea735174d42a" d="M221.86,61.55,199.07,49.13q-32.52,4.56-65,9.19l22.79,12.4Z" transform="translate(0.38 0.37)"/><line class="efc99239-3876-4ae0-a819-ea735174d42a" x1="200.56" y1="64.98" x2="177.77" y2="52.58"/><line class="efc99239-3876-4ae0-a819-ea735174d42a" x1="178.88" y1="68.05" x2="156.08" y2="55.65"/><path class="efc99239-3876-4ae0-a819-ea735174d42a" d="M156.81,70.75,134,58.35q-23.49,3.3-47,6.48l22.79,12.4Q133.32,74.07,156.81,70.75Z" transform="translate(0.38 0.37)"/><line class="efc99239-3876-4ae0-a819-ea735174d42a" x1="141.53" y1="73.3" x2="118.74" y2="60.91"/><line class="efc99239-3876-4ae0-a819-ea735174d42a" x1="125.87" y1="75.47" x2="103.08" y2="63.07"/><path class="efc99239-3876-4ae0-a819-ea735174d42a" d="M109.83,77.23,87,64.83c-21.7,3-36.82,16.08-46.85,37L63,114.23C73,93.31,88.13,80.28,109.83,77.23Z" transform="translate(0.38 0.37)"/><line class="efc99239-3876-4ae0-a819-ea735174d42a" x1="90.65" y1="83.89" x2="67.86" y2="71.49"/><line class="efc99239-3876-4ae0-a819-ea735174d42a" x1="75.14" y1="96.38" x2="52.35" y2="83.98"/><path class="efc99239-3876-4ae0-a819-ea735174d42a" d="M63,114.22l-22.79-12.4C28.65,125.91,34.13,152.9,52,164.63L74.76,177C56.92,165.3,51.44,138.31,63,114.22Z" transform="translate(0.38 0.37)"/><line class="efc99239-3876-4ae0-a819-ea735174d42a" x1="57.32" y1="138.97" x2="34.53" y2="126.57"/><line class="efc99239-3876-4ae0-a819-ea735174d42a" x1="61.59" y1="161.25" x2="38.8" y2="148.85"/><path class="efc99239-3876-4ae0-a819-ea735174d42a" d="M74.76,177,52,164.63c8.63,5.67,19.06,7.42,29.55,5.94L104.31,183C93.83,184.44,83.39,182.7,74.76,177Z" transform="translate(0.38 0.37)"/><path class="efc99239-3876-4ae0-a819-ea735174d42a" d="M54.64,166.23a28.12,28.12,0,0,1-2.67-1.6c-17.84-11.73-23.32-38.72-11.78-62.81,10-20.91,25.15-33.94,46.85-37q23.49-3.15,47-6.48,32.52-4.58,65-9.19l22.82,12.4q-32.52,4.58-65.05,9.2-23.49,3.3-47,6.48c-21.7,3-36.82,16.08-46.85,37C51.42,138.32,56.9,165.31,74.74,177c.87.58,1.77,1.11,2.67,1.6Z" transform="translate(0.38 0.37)"/></g><path class="b8faeeeb-9013-4c53-94fe-d28d4356233f" d="M54.64,166.23a28.12,28.12,0,0,1-2.67-1.6c-17.84-11.73-23.32-38.72-11.78-62.81,10-20.91,25.15-33.94,46.85-37q23.49-3.15,47-6.48,32.52-4.58,65-9.19l22.82,12.4q-32.52,4.58-65.05,9.2-23.49,3.3-47,6.48c-21.7,3-36.82,16.08-46.85,37C51.42,138.32,56.9,165.31,74.74,177c.87.58,1.77,1.11,2.67,1.6Z" transform="translate(0.38 0.37)"/><g class="a2d29847-a184-47be-82ca-fba7d4720375"><path class="efc99239-3876-4ae0-a819-ea735174d42a" d="M311.56,80.05l-22.8-12.4c-9-7.23-20.68-9.61-32.47-8l22.78,12.43C290.86,70.44,302.56,72.81,311.56,80.05Z" transform="translate(0.38 0.37)"/><line class="efc99239-3876-4ae0-a819-ea735174d42a" x1="302.12" y1="74.77" x2="279.33" y2="62.37"/><line class="efc99239-3876-4ae0-a819-ea735174d42a" x1="291.11" y1="72.18" x2="268.31" y2="59.78"/><path class="efc99239-3876-4ae0-a819-ea735174d42a" d="M279.07,72.13l-22.79-12.4a62,62,0,0,0-47.56,37l22.84,12.34A62.07,62.07,0,0,1,279.07,72.13Z" transform="translate(0.38 0.37)"/><line class="efc99239-3876-4ae0-a819-ea735174d42a" x1="260.46" y1="78.65" x2="237.66" y2="66.25"/><line class="efc99239-3876-4ae0-a819-ea735174d42a" x1="243.77" y1="91.24" x2="220.98" y2="78.84"/><path class="efc99239-3876-4ae0-a819-ea735174d42a" d="M231.56,109.07l-22.79-12.4c-9.27,22.22-23.32,41.17-40.11,58l22.79,12.4C208.2,150.24,222.25,131.29,231.56,109.07Z" transform="translate(0.38 0.37)"/><line class="efc99239-3876-4ae0-a819-ea735174d42a" x1="221.11" y1="130.61" x2="198.31" y2="118.21"/><line class="efc99239-3876-4ae0-a819-ea735174d42a" x1="207.59" y1="149.84" x2="184.79" y2="137.44"/><path class="efc99239-3876-4ae0-a819-ea735174d42a" d="M191.4,167l-22.79-12.4c-9.47,9.47-19.67,17.85-29.93,26.43l22.79,12.4C171.74,184.87,181.93,176.49,191.4,167Z" transform="translate(0.38 0.37)"/><line class="efc99239-3876-4ae0-a819-ea735174d42a" x1="182.09" y1="176.54" x2="159.3" y2="164.14"/><line class="efc99239-3876-4ae0-a819-ea735174d42a" x1="172.07" y1="185.26" x2="149.27" y2="172.86"/><path class="efc99239-3876-4ae0-a819-ea735174d42a" d="M306.1,76.43c-8-4.38-17.5-5.67-27-4.33a62.07,62.07,0,0,0-47.56,37c-9.26,22.22-23.31,41.17-40.11,58-9.47,9.47-19.66,17.85-29.93,26.43l-22.79-12.4c10.26-8.58,20.46-17,29.93-26.43,16.79-16.78,30.84-35.73,40.11-57.95a62,62,0,0,1,47.56-37c9.53-1.34,19,0,27,4.33Z" transform="translate(0.38 0.37)"/></g><path class="b8faeeeb-9013-4c53-94fe-d28d4356233f" d="M306.1,76.43c-8-4.38-17.5-5.67-27-4.33a62.07,62.07,0,0,0-47.56,37c-9.26,22.22-23.31,41.17-40.11,58-9.47,9.47-19.66,17.85-29.93,26.43l-22.79-12.4c10.26-8.58,20.46-17,29.93-26.43,16.79-16.78,30.84-35.73,40.11-57.95a62,62,0,0,1,47.56-37c9.53-1.34,19,0,27,4.33Z" transform="translate(0.38 0.37)"/><g class="e69d02b9-b306-48d8-bb57-f9ae42970367"><path class="efc99239-3876-4ae0-a819-ea735174d42a" d="M320.94,139.55l-22.79-12.42c10.19-22.07,5.69-47.39-9.4-59.5l22.81,12.42C326.63,92.13,331.13,117.48,320.94,139.55Z" transform="translate(0.38 0.37)"/><line class="efc99239-3876-4ae0-a819-ea735174d42a" x1="326.77" y1="117.37" x2="303.97" y2="104.97"/><line class="efc99239-3876-4ae0-a819-ea735174d42a" x1="323.33" y1="96.32" x2="300.54" y2="83.92"/><path class="efc99239-3876-4ae0-a819-ea735174d42a" d="M311.56,80.05l-22.8-12.4c-9-7.23-20.68-9.61-32.47-8l22.78,12.43C290.86,70.44,302.56,72.81,311.56,80.05Z" transform="translate(0.38 0.37)"/><path class="efc99239-3876-4ae0-a819-ea735174d42a" d="M283.31,64l22.79,12.4a36.65,36.65,0,0,1,5.46,3.62c15.08,12.11,19.58,37.43,9.39,59.5l-22.8-12.42c10.19-22.07,5.69-47.39-9.4-59.5A36.61,36.61,0,0,0,283.31,64Z" transform="translate(0.38 0.37)"/></g><path class="b8faeeeb-9013-4c53-94fe-d28d4356233f" d="M283.31,64l22.79,12.4a36.65,36.65,0,0,1,5.46,3.62c15.08,12.11,19.58,37.43,9.39,59.5l-22.8-12.42c10.19-22.07,5.69-47.39-9.4-59.5A36.61,36.61,0,0,0,283.31,64Z" transform="translate(0.38 0.37)"/><g class="bcad56b5-eb64-4707-8fc9-3f591268488e"><path class="efc99239-3876-4ae0-a819-ea735174d42a" d="M161.47,193.45l-22.79-12.4,4.87-.69,22.79,12.4Z" transform="translate(0.38 0.37)"/><path class="efc99239-3876-4ae0-a819-ea735174d42a" d="M140.3,180.82" transform="translate(0.38 0.37)"/><path class="efc99239-3876-4ae0-a819-ea735174d42a" d="M163.09,193.21" transform="translate(0.38 0.37)"/><path class="efc99239-3876-4ae0-a819-ea735174d42a" d="M141.92,180.59" transform="translate(0.38 0.37)"/><path class="efc99239-3876-4ae0-a819-ea735174d42a" d="M164.71,193" transform="translate(0.38 0.37)"/><path class="efc99239-3876-4ae0-a819-ea735174d42a" d="M166.34,192.76l-22.78-12.4c24.11-3.42,48.22-7,72.34-10.35l22.79,12.4C214.56,185.8,190.45,189.34,166.34,192.76Z" transform="translate(0.38 0.37)"/><line class="efc99239-3876-4ae0-a819-ea735174d42a" x1="190.83" y1="189.68" x2="168.04" y2="177.28"/><line class="efc99239-3876-4ae0-a819-ea735174d42a" x1="214.94" y1="186.2" x2="192.15" y2="173.8"/><path class="efc99239-3876-4ae0-a819-ea735174d42a" d="M238.68,182.41,215.89,170q17.38-2.44,34.77-4.75l22.79,12.4Q256.07,180,238.68,182.41Z" transform="translate(0.38 0.37)"/><line class="efc99239-3876-4ae0-a819-ea735174d42a" x1="250.65" y1="181.16" x2="227.86" y2="168.76"/><line class="efc99239-3876-4ae0-a819-ea735174d42a" x1="262.24" y1="179.57" x2="239.45" y2="167.17"/><path class="efc99239-3876-4ae0-a819-ea735174d42a" d="M273.45,177.66l-22.79-12.4.57-.08,22.8,12.4Z" transform="translate(0.38 0.37)"/><line class="efc99239-3876-4ae0-a819-ea735174d42a" x1="274.03" y1="178" x2="251.23" y2="165.6"/><line class="efc99239-3876-4ae0-a819-ea735174d42a" x1="274.22" y1="177.97" x2="251.42" y2="165.57"/><path class="efc99239-3876-4ae0-a819-ea735174d42a" d="M274,177.58l-22.8-12.4c21.88-3.07,37-16.52,46.92-38l22.79,12.4C311,161.06,295.9,174.5,274,177.58Z" transform="translate(0.38 0.37)"/><line class="efc99239-3876-4ae0-a819-ea735174d42a" x1="294.08" y1="171.5" x2="271.29" y2="159.1"/><line class="efc99239-3876-4ae0-a819-ea735174d42a" x1="309.6" y1="158.65" x2="286.81" y2="146.25"/><path class="efc99239-3876-4ae0-a819-ea735174d42a" d="M161.47,193.45l-22.79-12.4,4.87-.69c24.11-3.42,48.22-7,72.34-10.35q17.38-2.44,34.77-4.75l.57-.08c21.88-3.07,37-16.52,46.92-38l22.79,12.4c-9.94,21.51-25,35-46.91,38l-.58.08q-17.38,2.29-34.77,4.75c-24.12,3.39-48.23,6.93-72.34,10.35Z" transform="translate(0.38 0.37)"/></g><path class="b8faeeeb-9013-4c53-94fe-d28d4356233f" d="M161.47,193.45l-22.79-12.4,4.87-.69c24.11-3.42,48.22-7,72.34-10.35q17.38-2.44,34.77-4.75l.57-.08c21.88-3.07,37-16.52,46.92-38l22.79,12.4c-9.94,21.51-25,35-46.91,38l-.58.08q-17.38,2.29-34.77,4.75c-24.12,3.39-48.23,6.93-72.34,10.35Z" transform="translate(0.38 0.37)"/><g class="b8264707-c73e-400d-80a5-bd3ffd2c7f40"><path class="efc99239-3876-4ae0-a819-ea735174d42a" d="M86.68,64.88c16-2.16,31.68-4.33,47.34-6.53q32.52-4.58,65-9.19c-8.34,7.24-16.79,14-24.74,21.43-19.18,18.1-35.07,38.82-45.58,63.6-8.51,20.06-27.94,33.67-47.23,36.38-10.49,1.48-20.92-.27-29.55-5.94C34.08,152.9,28.6,125.91,40.14,101.82,50.22,80.91,65.34,67.88,86.68,64.88Z" transform="translate(0.38 0.37)"/></g><path class="b8faeeeb-9013-4c53-94fe-d28d4356233f" d="M86.68,64.88c16-2.16,31.68-4.33,47.34-6.53q32.52-4.58,65-9.19c-8.34,7.24-16.79,14-24.74,21.43-19.18,18.1-35.07,38.82-45.58,63.6-8.51,20.06-27.94,33.67-47.23,36.38-10.49,1.48-20.92-.27-29.55-5.94C34.08,152.9,28.6,125.91,40.14,101.82,50.22,80.91,65.34,67.88,86.68,64.88Z" transform="translate(0.38 0.37)"/><g class="bcca0b0a-bb0b-4a60-a9f4-a93c51a31ce2"><path class="efc99239-3876-4ae0-a819-ea735174d42a" d="M109.48,77.28c16-2.16,31.67-4.33,47.33-6.53q32.53-4.57,65.05-9.2c-8.34,7.24-16.79,14-24.73,21.44-19.18,18.14-35.08,38.82-45.57,63.59-8.52,20.07-28,33.68-47.24,36.39-10.48,1.47-20.92-.27-29.55-5.94C56.93,165.3,51.45,138.31,63,114.22,73,93.31,88.13,80.28,109.48,77.28Z" transform="translate(0.38 0.37)"/></g><path class="b8faeeeb-9013-4c53-94fe-d28d4356233f" d="M109.48,77.28c16-2.16,31.67-4.33,47.33-6.53q32.53-4.57,65.05-9.2c-8.34,7.24-16.79,14-24.73,21.44-19.18,18.14-35.08,38.82-45.57,63.59-8.52,20.07-28,33.68-47.24,36.39-10.48,1.47-20.92-.27-29.55-5.94C56.93,165.3,51.45,138.31,63,114.22,73,93.31,88.13,80.28,109.48,77.28Z" transform="translate(0.38 0.37)"/><g class="a5ff120a-c794-4db0-8f7c-ee9ede2eea94"><path class="efc99239-3876-4ae0-a819-ea735174d42a" d="M109.48,77.28l-22.8-12.4c16-2.16,31.68-4.33,47.34-6.53l22.79,12.4C141.15,73,125.49,75.13,109.48,77.28Z" transform="translate(0.38 0.37)"/><line class="efc99239-3876-4ae0-a819-ea735174d42a" x1="125.77" y1="75.48" x2="102.97" y2="63.08"/><line class="efc99239-3876-4ae0-a819-ea735174d42a" x1="141.52" y1="73.31" x2="118.73" y2="60.91"/><path class="efc99239-3876-4ae0-a819-ea735174d42a" d="M156.81,70.75,134,58.35q32.52-4.58,65-9.19l22.84,12.39Q189.34,66.13,156.81,70.75Z" transform="translate(0.38 0.37)"/><line class="efc99239-3876-4ae0-a819-ea735174d42a" x1="178.88" y1="68.05" x2="156.08" y2="55.65"/><line class="efc99239-3876-4ae0-a819-ea735174d42a" x1="200.56" y1="64.98" x2="177.77" y2="52.58"/><path class="efc99239-3876-4ae0-a819-ea735174d42a" d="M109.48,77.28l-22.8-12.4c16-2.16,31.68-4.33,47.34-6.53q32.52-4.58,65-9.19l22.84,12.39q-32.52,4.58-65.05,9.2C141.15,73,125.49,75.13,109.48,77.28Z" transform="translate(0.38 0.37)"/></g><path class="b8faeeeb-9013-4c53-94fe-d28d4356233f" d="M109.48,77.28l-22.8-12.4c16-2.16,31.68-4.33,47.34-6.53q32.52-4.58,65-9.19l22.84,12.39q-32.52,4.58-65.05,9.2C141.15,73,125.49,75.13,109.48,77.28Z" transform="translate(0.38 0.37)"/><g class="a7ebde5b-a7b4-4580-b7b7-754745e651d1"><path class="efc99239-3876-4ae0-a819-ea735174d42a" d="M104.31,183l-22.75-12.4c-10.49,1.48-20.92-.27-29.55-5.94L74.76,177C83.39,182.7,93.83,184.44,104.31,183Z" transform="translate(0.38 0.37)"/><path class="efc99239-3876-4ae0-a819-ea735174d42a" d="M74.76,177,52,164.63c-17.84-11.73-23.32-38.72-11.78-62.81L63,114.22C51.44,138.31,56.92,165.3,74.76,177Z" transform="translate(0.38 0.37)"/><line class="efc99239-3876-4ae0-a819-ea735174d42a" x1="61.59" y1="161.25" x2="38.8" y2="148.85"/><line class="efc99239-3876-4ae0-a819-ea735174d42a" x1="57.32" y1="138.97" x2="34.53" y2="126.57"/><path class="efc99239-3876-4ae0-a819-ea735174d42a" d="M63,114.22l-22.8-12.4c10-20.91,25.15-33.94,46.49-36.94l22.8,12.4C88.13,80.28,73,93.31,63,114.22Z" transform="translate(0.38 0.37)"/><line class="efc99239-3876-4ae0-a819-ea735174d42a" x1="75.13" y1="96.38" x2="52.34" y2="83.98"/><line class="efc99239-3876-4ae0-a819-ea735174d42a" x1="90.54" y1="83.91" x2="67.75" y2="71.51"/><path class="efc99239-3876-4ae0-a819-ea735174d42a" d="M77.43,178.63l-22.79-12.4a28.12,28.12,0,0,1-2.67-1.6c-17.84-11.73-23.32-38.72-11.78-62.81,10-20.91,25.15-33.94,46.49-36.94l22.8,12.4c-21.35,3-36.47,16-46.49,36.94C51.44,138.31,56.92,165.3,74.76,177,75.63,177.61,76.56,178.13,77.43,178.63Z" transform="translate(0.38 0.37)"/></g><path class="b8faeeeb-9013-4c53-94fe-d28d4356233f" d="M77.43,178.63l-22.79-12.4a28.12,28.12,0,0,1-2.67-1.6c-17.84-11.73-23.32-38.72-11.78-62.81,10-20.91,25.15-33.94,46.49-36.94l22.8,12.4c-21.35,3-36.47,16-46.49,36.94C51.44,138.31,56.92,165.3,74.76,177,75.63,177.61,76.56,178.13,77.43,178.63Z" transform="translate(0.38 0.37)"/><g class="a4182fa4-54d0-4b4b-aed7-4a719243639c"><path class="efc99239-3876-4ae0-a819-ea735174d42a" d="M221.86,61.55,199.07,49.13c-8.34,7.24-16.79,13.95-24.74,21.43L197.13,83C205.07,75.51,213.56,68.79,221.86,61.55Z" transform="translate(0.38 0.37)"/><line class="efc99239-3876-4ae0-a819-ea735174d42a" x1="213.89" y1="69.03" x2="191.09" y2="56.63"/><line class="efc99239-3876-4ae0-a819-ea735174d42a" x1="205.6" y1="76.08" x2="182.8" y2="63.68"/><path class="efc99239-3876-4ae0-a819-ea735174d42a" d="M197.13,83l-22.8-12.4c-19.18,18.1-35.07,38.82-45.58,63.6l22.81,12.39C162.05,121.81,178,101.13,197.13,83Z" transform="translate(0.38 0.37)"/><line class="efc99239-3876-4ae0-a819-ea735174d42a" x1="179.5" y1="102.38" x2="156.7" y2="89.98"/><line class="efc99239-3876-4ae0-a819-ea735174d42a" x1="164.15" y1="123.47" x2="141.36" y2="111.07"/><path class="efc99239-3876-4ae0-a819-ea735174d42a" d="M151.56,146.58l-22.8-12.39c-8.51,20.06-27.94,33.67-47.23,36.38L104.32,183C123.56,180.26,143,166.65,151.56,146.58Z" transform="translate(0.38 0.37)"/><line class="efc99239-3876-4ae0-a819-ea735174d42a" x1="140.18" y1="164.7" x2="117.39" y2="152.3"/><line class="efc99239-3876-4ae0-a819-ea735174d42a" x1="123.62" y1="177.16" x2="100.82" y2="164.76"/><path class="efc99239-3876-4ae0-a819-ea735174d42a" d="M104.31,183l-22.75-12.4c-10.49,1.48-20.92-.27-29.55-5.94L74.76,177C83.39,182.7,93.83,184.44,104.31,183Z" transform="translate(0.38 0.37)"/><line class="efc99239-3876-4ae0-a819-ea735174d42a" x1="94.29" y1="183.71" x2="71.49" y2="171.31"/><path class="efc99239-3876-4ae0-a819-ea735174d42a" d="M61.13,169" transform="translate(0.38 0.37)"/><path class="efc99239-3876-4ae0-a819-ea735174d42a" d="M83.93,181.41" transform="translate(0.38 0.37)"/><path class="efc99239-3876-4ae0-a819-ea735174d42a" d="M54.64,166.23c8.07,4.39,17.45,5.67,26.88,4.34,19.29-2.71,38.72-16.32,47.23-36.38,10.51-24.78,26.4-45.5,45.58-63.6,7.95-7.46,16.4-14.19,24.74-21.46l22.79,12.42c-8.34,7.24-16.79,14-24.73,21.44-19.18,18.14-35.08,38.82-45.57,63.59-8.52,20.07-28,33.68-47.24,36.39a43.6,43.6,0,0,1-26.88-4.34Z" transform="translate(0.38 0.37)"/></g><path class="b8faeeeb-9013-4c53-94fe-d28d4356233f" d="M54.64,166.23c8.07,4.39,17.45,5.67,26.88,4.34,19.29-2.71,38.72-16.32,47.23-36.38,10.51-24.78,26.4-45.5,45.58-63.6,7.95-7.46,16.4-14.19,24.74-21.46l22.79,12.42c-8.34,7.24-16.79,14-24.73,21.44-19.18,18.14-35.08,38.82-45.57,63.59-8.52,20.07-28,33.68-47.24,36.39a43.6,43.6,0,0,1-26.88-4.34Z" transform="translate(0.38 0.37)"/><g class="e633152c-c598-4e34-b179-277fcfd7524b"><path class="efc99239-3876-4ae0-a819-ea735174d42a" d="M256.28,59.7c11.79-1.66,23.46.72,32.47,8,15.09,12.11,19.59,37.43,9.4,59.5-9.94,21.51-25,35-46.92,38l-.57.08q-17.39,2.29-34.77,4.75c-24.12,3.39-48.23,6.93-72.34,10.35l-4.87.69c10.26-8.58,20.46-17,29.93-26.43,16.79-16.78,30.84-35.73,40.11-57.95A62.08,62.08,0,0,1,256.28,59.7Z" transform="translate(0.38 0.37)"/></g><path class="b8faeeeb-9013-4c53-94fe-d28d4356233f" d="M256.28,59.7c11.79-1.66,23.46.72,32.47,8,15.09,12.11,19.59,37.43,9.4,59.5-9.94,21.51-25,35-46.92,38l-.57.08q-17.39,2.29-34.77,4.75c-24.12,3.39-48.23,6.93-72.34,10.35l-4.87.69c10.26-8.58,20.46-17,29.93-26.43,16.79-16.78,30.84-35.73,40.11-57.95A62.08,62.08,0,0,1,256.28,59.7Z" transform="translate(0.38 0.37)"/><g class="ae13f455-3bf4-437c-8807-6466c3561fc9"><path class="efc99239-3876-4ae0-a819-ea735174d42a" d="M279.07,72.13c11.79-1.66,23.47.71,32.48,8,15.08,12.11,19.58,37.43,9.39,59.5-9.94,21.51-25,35-46.91,38l-.58.08q-17.38,2.29-34.77,4.75c-24.11,3.39-48.23,6.93-72.34,10.35l-4.87.69c10.27-8.58,20.46-17,29.94-26.43,16.79-16.78,30.84-35.73,40.1-57.95A62.07,62.07,0,0,1,279.07,72.13Z" transform="translate(0.38 0.37)"/></g><path class="b8faeeeb-9013-4c53-94fe-d28d4356233f" d="M279.07,72.13c11.79-1.66,23.47.71,32.48,8,15.08,12.11,19.58,37.43,9.39,59.5-9.94,21.51-25,35-46.91,38l-.58.08q-17.38,2.29-34.77,4.75c-24.11,3.39-48.23,6.93-72.34,10.35l-4.87.69c10.27-8.58,20.46-17,29.94-26.43,16.79-16.78,30.84-35.73,40.1-57.95A62.07,62.07,0,0,1,279.07,72.13Z" transform="translate(0.38 0.37)"/><g class="f19904be-d55b-4470-baa8-0d1c6531f4f4"><path class="efc99239-3876-4ae0-a819-ea735174d42a" d="M279.07,72.13l-22.79-12.4c11.79-1.66,23.46.72,32.47,8l22.81,12.37C302.56,72.81,290.86,70.44,279.07,72.13Z" transform="translate(0.38 0.37)"/><path class="efc99239-3876-4ae0-a819-ea735174d42a" d="M311.56,80.05l-22.8-12.4c15.09,12.11,19.59,37.43,9.4,59.5L321,139.55C331.13,117.48,326.63,92.13,311.56,80.05Z" transform="translate(0.38 0.37)"/><line class="efc99239-3876-4ae0-a819-ea735174d42a" x1="323.33" y1="96.32" x2="300.54" y2="83.92"/><line class="efc99239-3876-4ae0-a819-ea735174d42a" x1="326.77" y1="117.37" x2="303.97" y2="104.97"/><path class="efc99239-3876-4ae0-a819-ea735174d42a" d="M320.94,139.55l-22.79-12.42c-9.94,21.51-25,35-46.92,38l22.8,12.4C295.9,174.5,311,161.06,320.94,139.55Z" transform="translate(0.38 0.37)"/><line class="efc99239-3876-4ae0-a819-ea735174d42a" x1="309.6" y1="158.65" x2="286.81" y2="146.25"/><line class="efc99239-3876-4ae0-a819-ea735174d42a" x1="294.08" y1="171.5" x2="271.29" y2="159.1"/><path class="efc99239-3876-4ae0-a819-ea735174d42a" d="M274,177.58l-22.8-12.4-.57.08,22.79,12.4Z" transform="translate(0.38 0.37)"/><line class="efc99239-3876-4ae0-a819-ea735174d42a" x1="274.22" y1="177.97" x2="251.42" y2="165.57"/><line class="efc99239-3876-4ae0-a819-ea735174d42a" x1="274.03" y1="178" x2="251.23" y2="165.6"/><path class="efc99239-3876-4ae0-a819-ea735174d42a" d="M273.45,177.66l-22.79-12.4q-17.39,2.3-34.77,4.75l22.79,12.4Q256.07,180,273.45,177.66Z" transform="translate(0.38 0.37)"/><line class="efc99239-3876-4ae0-a819-ea735174d42a" x1="262.24" y1="179.57" x2="239.45" y2="167.17"/><line class="efc99239-3876-4ae0-a819-ea735174d42a" x1="250.65" y1="181.16" x2="227.86" y2="168.76"/><path class="efc99239-3876-4ae0-a819-ea735174d42a" d="M166.34,192.76c24.11-3.42,48.22-7,72.34-10.35L215.89,170c-24.12,3.39-48.23,6.93-72.34,10.35" transform="translate(0.38 0.37)"/><line class="efc99239-3876-4ae0-a819-ea735174d42a" x1="214.94" y1="186.2" x2="192.15" y2="173.8"/><line class="efc99239-3876-4ae0-a819-ea735174d42a" x1="190.83" y1="189.67" x2="168.04" y2="177.28"/><path class="efc99239-3876-4ae0-a819-ea735174d42a" d="M143.56,180.36l-4.87.69,22.79,12.4,4.86-.69" transform="translate(0.38 0.37)"/><path class="efc99239-3876-4ae0-a819-ea735174d42a" d="M141.92,180.59" transform="translate(0.38 0.37)"/><path class="efc99239-3876-4ae0-a819-ea735174d42a" d="M164.71,193" transform="translate(0.38 0.37)"/><path class="efc99239-3876-4ae0-a819-ea735174d42a" d="M140.3,180.82" transform="translate(0.38 0.37)"/><path class="efc99239-3876-4ae0-a819-ea735174d42a" d="M163.09,193.21" transform="translate(0.38 0.37)"/><path class="efc99239-3876-4ae0-a819-ea735174d42a" d="M306.1,76.43a36.65,36.65,0,0,1,5.46,3.62c15.08,12.11,19.58,37.43,9.39,59.5-9.94,21.51-25,35-46.91,38l-.58.08q-17.38,2.3-34.77,4.75c-24.11,3.39-48.23,6.93-72.34,10.35l-4.87.69L138.69,181l4.87-.69c24.11-3.42,48.22-7,72.34-10.35q17.39-2.44,34.77-4.75l.57-.08c21.88-3.07,37-16.52,46.92-38,10.19-22.07,5.69-47.39-9.4-59.5A36,36,0,0,0,283.32,64Z" transform="translate(0.38 0.37)"/></g><path class="b8faeeeb-9013-4c53-94fe-d28d4356233f" d="M306.1,76.43a36.65,36.65,0,0,1,5.46,3.62c15.08,12.11,19.58,37.43,9.39,59.5-9.94,21.51-25,35-46.91,38l-.58.08q-17.38,2.3-34.77,4.75c-24.11,3.39-48.23,6.93-72.34,10.35l-4.87.69L138.69,181l4.87-.69c24.11-3.42,48.22-7,72.34-10.35q17.39-2.44,34.77-4.75l.57-.08c21.88-3.07,37-16.52,46.92-38,10.19-22.07,5.69-47.39-9.4-59.5A36,36,0,0,0,283.32,64Z" transform="translate(0.38 0.37)"/><g class="f8320839-be5b-4dbe-bc55-12885996cd3c"><path class="efc99239-3876-4ae0-a819-ea735174d42a" d="M279.07,72.13l-22.79-12.4c11.79-1.66,23.46.72,32.47,8l22.81,12.37C302.56,72.81,290.86,70.44,279.07,72.13Z" transform="translate(0.38 0.37)"/><line class="efc99239-3876-4ae0-a819-ea735174d42a" x1="291.11" y1="72.18" x2="268.31" y2="59.78"/><line class="efc99239-3876-4ae0-a819-ea735174d42a" x1="302.12" y1="74.77" x2="279.33" y2="62.37"/><path class="efc99239-3876-4ae0-a819-ea735174d42a" d="M283.31,64l22.79,12.4c-8-4.38-17.5-5.67-27-4.33L256.31,59.7C265.81,58.36,275.27,59.65,283.31,64Z" transform="translate(0.38 0.37)"/></g><path class="b8faeeeb-9013-4c53-94fe-d28d4356233f" d="M283.31,64l22.79,12.4c-8-4.38-17.5-5.67-27-4.33L256.31,59.7C265.81,58.36,275.27,59.65,283.31,64Z" transform="translate(0.38 0.37)"/><g class="bace5883-a7ff-4b49-a798-525f3212c83d"><path class="efc99239-3876-4ae0-a819-ea735174d42a" d="M161.47,193.45l-22.79-12.4c10.26-8.58,20.46-17,29.93-26.43l22.8,12.4C181.93,176.49,171.74,184.87,161.47,193.45Z" transform="translate(0.38 0.37)"/><line class="efc99239-3876-4ae0-a819-ea735174d42a" x1="172.07" y1="185.26" x2="149.27" y2="172.86"/><line class="efc99239-3876-4ae0-a819-ea735174d42a" x1="182.09" y1="176.54" x2="159.3" y2="164.14"/><path class="efc99239-3876-4ae0-a819-ea735174d42a" d="M191.41,167l-22.8-12.4c16.79-16.78,30.84-35.73,40.11-57.95l22.84,12.4C222.25,131.29,208.2,150.24,191.41,167Z" transform="translate(0.38 0.37)"/><line class="efc99239-3876-4ae0-a819-ea735174d42a" x1="207.59" y1="149.84" x2="184.79" y2="137.44"/><line class="efc99239-3876-4ae0-a819-ea735174d42a" x1="221.11" y1="130.61" x2="198.31" y2="118.21"/><path class="efc99239-3876-4ae0-a819-ea735174d42a" d="M231.56,109.07l-22.79-12.4a62,62,0,0,1,47.56-37l22.74,12.46A62.07,62.07,0,0,0,231.56,109.07Z" transform="translate(0.38 0.37)"/><line class="efc99239-3876-4ae0-a819-ea735174d42a" x1="243.77" y1="91.24" x2="220.98" y2="78.84"/><line class="efc99239-3876-4ae0-a819-ea735174d42a" x1="260.46" y1="78.65" x2="237.66" y2="66.25"/><path class="efc99239-3876-4ae0-a819-ea735174d42a" d="M161.47,193.45l-22.79-12.4c10.26-8.58,20.46-17,29.93-26.43,16.79-16.78,30.84-35.73,40.11-57.95a62,62,0,0,1,47.56-37l22.79,12.46a62.07,62.07,0,0,0-47.56,37c-9.26,22.22-23.31,41.17-40.1,58C181.93,176.49,171.74,184.87,161.47,193.45Z" transform="translate(0.38 0.37)"/></g><path class="b8faeeeb-9013-4c53-94fe-d28d4356233f" d="M161.47,193.45l-22.79-12.4c10.26-8.58,20.46-17,29.93-26.43,16.79-16.78,30.84-35.73,40.11-57.95a62,62,0,0,1,47.56-37l22.79,12.46a62.07,62.07,0,0,0-47.56,37c-9.26,22.22-23.31,41.17-40.1,58C181.93,176.49,171.74,184.87,161.47,193.45Z" transform="translate(0.38 0.37)"/></g></g></svg>