<svg id="prefix__e2080b93-647e-4f1a-8b14-539ab30d3964" data-name="Capa 1" xmlns="http://www.w3.org/2000/svg"
    viewBox="0 0 361.4 243.4">
    <defs>
        <clipPath id="prefix__e63cebd9-b0d2-4a11-8835-796e70ce0d1d" transform="translate(.4 .4)">
            <path class="prefix__b8faeeeb-9013-4c53-94fe-d28d4356233f"
                d="M315.5 40.6c29 27.4 30.5 81.2-.3 122-16.7 22-37.3 35.3-62.3 38.9l-1 .1q-19.4 2.5-38.7 5.2l-58.3 8.3-56.4 7.8-44.5 6.2a84 84 0 0 1-26.3 0c-7.7-1.3-13.2-5.6-14.5-14.1a22 22 0 0 1 9.3-21.8c2.1-1.6 1.2-2.3.1-3.4C-22.8 145.8 4.6 56 69 32.4A68.7 68.7 0 0 1 83 29L275 2C285.9.5 296.5-.4 307 .5c12.3 1 19 8.8 17.8 20.5a22 22 0 0 1-8.7 15.5c-2 1.6-2.5 2.4-.6 4.1Zm-234 130a62 62 0 0 0 47.3-36.4 188.6 188.6 0 0 1 45.6-63.6C182.3 63 190.7 56.4 199 49l-65 9.2-47 6.5c-21.7 3-36.9 16-46.9 37-11.5 24-6 51 11.8 62.8 8.6 5.7 19 7.4 29.6 6M298.1 127c10.1-22 5.6-47.4-9.5-59.5a42 42 0 0 0-32.4-8 62 62 0 0 0-47.6 37 181 181 0 0 1-40 58c-9.6 9.6-19.8 18-30 26.5l4.8-.7c24.2-3.4 48.3-7 72.4-10.3l34.8-4.8h.5c22-3.1 37-16.6 47-38" />
        </clipPath>
        <clipPath id="prefix__b1a33a9a-6d8d-46de-b050-b83172cfc913" transform="translate(.4 .4)">
            <path class="prefix__b8faeeeb-9013-4c53-94fe-d28d4356233f"
                d="M338.3 53c29 27.4 30.4 81.2-.4 122-16.6 22-37.2 35.3-62.2 38.9l-1 .1q-19.4 2.5-38.7 5.2l-58.3 8.3-56.4 7.8-44.6 6.2a84 84 0 0 1-26.3 0c-7.7-1.3-13.2-5.6-14.5-14.2a22 22 0 0 1 9.3-21.7c2.2-1.7 1.3-2.3.2-3.4-45.4-44-18-133.9 46.3-157.4a68.7 68.7 0 0 1 14-3.5l192.2-27a148 148 0 0 1 31.8-1.4c12.4 1 19.1 8.8 17.9 20.6a22 22 0 0 1-8.7 15.4c-2 1.6-2.5 2.4-.6 4.1Zm-234 130a62.1 62.1 0 0 0 47.2-36.4A188.5 188.5 0 0 1 197.1 83c8-7.5 16.4-14.2 24.7-21.4l-65 9.2-47 6.5c-21.7 3-36.8 16-46.8 37-11.6 24-6.1 51 11.7 62.7 8.6 5.7 19 7.4 29.6 6m216.6-43.5c10.2-22 5.7-47.4-9.4-59.5a42 42 0 0 0-32.5-8 62 62 0 0 0-47.6 37 179.9 179.9 0 0 1-40 58c-9.5 9.4-19.7 17.8-30 26.4l4.9-.7c24-3.4 48.2-7 72.3-10.3l34.8-4.8h.6c21.8-3.1 37-16.6 46.9-38" />
        </clipPath>
        <clipPath id="prefix__a8cd206c-085b-4c3e-982e-72443b95fd77" transform="translate(.4 .4)">
            <path class="prefix__b8faeeeb-9013-4c53-94fe-d28d4356233f"
                d="M338.3 53c29 27.4 30.4 81.2-.4 122-16.6 22-37.2 35.3-62.2 38.9l-1 .1q-19.4 2.5-38.7 5.2l-58.3 8.3-22.8-12.4 58.3-8.3 38.6-5.2 1-.1c25.1-3.6 45.7-17 62.4-39 30.8-40.7 29.2-94.5.3-121.8Z" />
        </clipPath>
        <clipPath id="prefix__e6c23af8-83d3-4eb0-974b-3aef4ba9d89a" transform="translate(.4 .4)">
            <path class="prefix__b8faeeeb-9013-4c53-94fe-d28d4356233f"
                d="M43.9 239.4 21 227c-4.2-2.3-7-6.1-8-12a22 22 0 0 1 9.3-21.8c2.2-1.6 1.3-2.2.1-3.3C-22.8 145.7 4.7 55.9 69 32.4A68.7 68.7 0 0 1 83 29L275 2C285.9.5 296.5-.4 307 .5a24 24 0 0 1 9.4 2.6l22.8 12.4a23.8 23.8 0 0 0-9.5-2.6 142 142 0 0 0-31.8 1.5l-192.1 27A68.7 68.7 0 0 0 91.7 45C27.4 68.3 0 158.1 45.4 202.2c1 1.1 2 1.7-.2 3.4a21.9 21.9 0 0 0-9.3 21.7c1 6 3.8 9.8 8 12Z" />
        </clipPath>
        <clipPath id="prefix__b8da8e9f-9029-4d45-ad8b-056fc5338fe4" transform="translate(.4 .4)">
            <path class="prefix__b8faeeeb-9013-4c53-94fe-d28d4356233f"
                d="M21.1 227a21.8 21.8 0 0 0 6.5 2.2 84 84 0 0 0 26.3 0l44.6-6.2c18.8-2.7 37.6-5.4 56.4-7.8l22.8 12.4c-18.8 2.4-37.6 5.1-56.4 7.8l-44.6 6.1a84 84 0 0 1-26.3.1 21.8 21.8 0 0 1-6.5-2.2Z" />
        </clipPath>
        <clipPath id="prefix__a34f2620-0b96-4d66-9290-0935a677f2c0" transform="translate(.4 .4)">
            <path class="prefix__b8faeeeb-9013-4c53-94fe-d28d4356233f"
                d="M339.2 15.5c6.2 3.4 9.3 9.7 8.4 18a22 22 0 0 1-8.7 15.5c-2 1.6-2.5 2.4-.6 4.2l-22.8-12.5c-1.9-1.8-1.4-2.5.6-4.2a22 22 0 0 0 8.7-15.4c.8-8.2-2.2-14.6-8.4-18Z" />
        </clipPath>
        <clipPath id="prefix__f7b6b199-cd84-4b48-bf8d-dfbd74412713" transform="translate(.4 .4)">
            <path class="prefix__b8faeeeb-9013-4c53-94fe-d28d4356233f"
                d="m104.3 183-22.7-12.4a62 62 0 0 0 47.2-36.4 188.6 188.6 0 0 1 45.6-63.6c7.9-7.4 16.3-14.2 24.7-21.4l22.8 12.4c-8.4 7.2-16.8 14-24.8 21.4a188.5 188.5 0 0 0-45.5 63.6c-8.6 20-28 33.7-47.3 36.4Z" />
        </clipPath>
        <clipPath id="prefix__e4e81301-ac9d-43c5-a165-8efcdde75ae8" transform="translate(.4 .4)">
            <path class="prefix__b8faeeeb-9013-4c53-94fe-d28d4356233f"
                d="m77.4 178.6-22.8-12.4c8.1 4.4 17.5 5.7 27 4.4l22.7 12.4c-9.4 1.3-18.8 0-26.9-4.4Z" />
        </clipPath>
        <clipPath id="prefix__ae96a6c9-7edd-4af1-9424-f7cb2e2bf93b" transform="translate(.4 .4)">
            <path class="prefix__b8faeeeb-9013-4c53-94fe-d28d4356233f"
                d="M54.6 166.2a28.1 28.1 0 0 1-2.6-1.6C34 153 28.6 126 40.2 101.8c10-20.9 25.1-34 46.8-37q23.5-3.1 47-6.5 32.6-4.5 65-9.2l23 12.4-65 9.2-47 6.5c-21.8 3-37 16.1-47 37-11.5 24.1-6 51.1 11.8 62.8l2.7 1.6Z" />
        </clipPath>
        <clipPath id="prefix__b198e14d-a43f-454a-bd6d-d1ba9223fe1d" transform="translate(.4 .4)">
            <path class="prefix__b8faeeeb-9013-4c53-94fe-d28d4356233f"
                d="M306.1 76.4c-8-4.3-17.5-5.6-27-4.3a62 62 0 0 0-47.6 37 180.6 180.6 0 0 1-40 58c-9.5 9.5-19.7 17.9-30 26.4l-22.8-12.4c10.3-8.5 20.5-17 30-26.4a180.2 180.2 0 0 0 40-58 62 62 0 0 1 47.6-37c9.5-1.3 19 0 27 4.4Z" />
        </clipPath>
        <clipPath id="prefix__b3724d98-7198-4ab8-9404-6f5ca8693638" transform="translate(.4 .4)">
            <path class="prefix__b8faeeeb-9013-4c53-94fe-d28d4356233f"
                d="m283.3 64 22.8 12.4a36.6 36.6 0 0 1 5.5 3.6c15 12.1 19.5 37.5 9.3 59.5l-22.7-12.4c10.1-22 5.6-47.4-9.5-59.5a36.6 36.6 0 0 0-5.4-3.6Z" />
        </clipPath>
        <clipPath id="prefix__b7c42742-d29b-4614-8983-695b1d4cb8df" transform="translate(.4 .4)">
            <path class="prefix__b8faeeeb-9013-4c53-94fe-d28d4356233f"
                d="M161.5 193.4 138.7 181l4.9-.6 72.3-10.4 34.8-4.7.5-.1c22-3 37-16.5 47-38l22.7 12.4c-9.9 21.5-25 35-46.9 38h-.5l-34.8 4.8-72.4 10.4Z" />
        </clipPath>
        <clipPath id="prefix__adb70346-d1a7-4458-9d6f-3d42f2b961cd" transform="translate(.4 .4)">
            <path class="prefix__b8faeeeb-9013-4c53-94fe-d28d4356233f"
                d="m86.7 64.9 47.3-6.6 65-9.1c-8.3 7.2-16.8 14-24.7 21.4a188.6 188.6 0 0 0-45.6 63.6 62 62 0 0 1-47.2 36.4c-10.5 1.4-21-.3-29.6-6C34.1 153 28.6 126 40.1 101.8c10.1-20.9 25.2-34 46.6-37Z" />
        </clipPath>
        <clipPath id="prefix__b791ddc2-c6ff-46c8-a888-f00533340fbc" transform="translate(.4 .4)">
            <path class="prefix__b8faeeeb-9013-4c53-94fe-d28d4356233f"
                d="m109.5 77.3 47.3-6.5 65-9.2c-8.3 7.2-16.7 14-24.7 21.4a188.8 188.8 0 0 0-45.5 63.6c-8.6 20-28 33.7-47.3 36.4a42.5 42.5 0 0 1-29.5-6c-17.9-11.7-23.3-38.7-11.8-62.8 10-20.9 25.1-34 46.5-37Z" />
        </clipPath>
        <clipPath id="prefix__abc18ef1-d22b-4abf-8039-f6bf61d2bfb3" transform="translate(.4 .4)">
            <path class="prefix__b8faeeeb-9013-4c53-94fe-d28d4356233f"
                d="M109.5 77.3 86.7 64.9l47.3-6.6 65-9.1 23 12.3-65 9.2-47.4 6.6Z" />
        </clipPath>
        <clipPath id="prefix__f12a3bcd-84ff-4159-bc24-8e72818a4223" transform="translate(.4 .4)">
            <path class="prefix__b8faeeeb-9013-4c53-94fe-d28d4356233f"
                d="m77.4 178.6-22.8-12.4a28.1 28.1 0 0 1-2.6-1.6C34 153 28.7 126 40.2 101.8c10-20.9 25.1-34 46.5-37l22.8 12.5c-21.4 3-36.5 16-46.5 37-11.6 24-6 51 11.8 62.7l2.6 1.6Z" />
        </clipPath>
        <clipPath id="prefix__b384759f-564d-4d0e-82d7-8b7346550d8a" transform="translate(.4 .4)">
            <path class="prefix__b8faeeeb-9013-4c53-94fe-d28d4356233f"
                d="M54.6 166.2c8.1 4.4 17.5 5.7 27 4.4a62 62 0 0 0 47.1-36.4 188.6 188.6 0 0 1 45.6-63.6c8-7.5 16.4-14.2 24.8-21.5l22.8 12.5c-8.4 7.2-16.8 14-24.8 21.4a188.8 188.8 0 0 0-45.5 63.6c-8.6 20-28 33.7-47.3 36.4a43.6 43.6 0 0 1-26.9-4.4Z" />
        </clipPath>
        <clipPath id="prefix__b18a83de-0be4-4fe3-aa38-8acc8ee5d1b5" transform="translate(.4 .4)">
            <path class="prefix__b8faeeeb-9013-4c53-94fe-d28d4356233f"
                d="M256.3 59.7c11.8-1.7 23.4.7 32.4 8 15.1 12.1 19.6 37.4 9.5 59.5-10 21.5-25 35-47 38h-.5l-34.8 4.8-72.4 10.4-4.8.7c10.2-8.6 20.4-17 30-26.5a180.2 180.2 0 0 0 40-58 62 62 0 0 1 47.6-36.9Z" />
        </clipPath>
        <clipPath id="prefix__b5be5307-233e-44c2-8c29-bab49e9b00af" transform="translate(.4 .4)">
            <path class="prefix__b8faeeeb-9013-4c53-94fe-d28d4356233f"
                d="M279 72.1c11.9-1.6 23.5.7 32.5 8 15.1 12.1 19.6 37.5 9.4 59.5-9.9 21.5-25 35-46.9 38l-.6.1-34.7 4.8-72.4 10.3-4.8.7c10.2-8.6 20.4-17 30-26.4a180 180 0 0 0 40-58 62 62 0 0 1 47.6-37Z" />
        </clipPath>
        <clipPath id="prefix__f6935f05-55ba-499a-a98a-f456103eb548" transform="translate(.4 .4)">
            <path class="prefix__b8faeeeb-9013-4c53-94fe-d28d4356233f"
                d="M306.1 76.4a36.6 36.6 0 0 1 5.5 3.7c15 12 19.5 37.4 9.3 59.5-9.9 21.5-25 35-46.9 38h-.5l-34.8 4.8c-24.1 3.4-48.2 7-72.4 10.3l-4.8.7-22.8-12.4 4.9-.7c24-3.4 48.2-7 72.3-10.3l34.8-4.8h.5c22-3.1 37-16.6 47-38 10.2-22.1 5.7-47.5-9.4-59.6a36 36 0 0 0-5.5-3.6Z" />
        </clipPath>
        <clipPath id="prefix__b2cc3809-ace3-4d57-a8cf-fe08cced1801" transform="translate(.4 .4)">
            <path class="prefix__b8faeeeb-9013-4c53-94fe-d28d4356233f"
                d="m283.3 64 22.8 12.4c-8-4.4-17.5-5.7-27-4.3l-22.8-12.4c9.5-1.3 19 0 27 4.3Z" />
        </clipPath>
        <clipPath id="prefix__e4ab9505-9fdb-4666-b07a-61500c33f397" transform="translate(.4 .4)">
            <path class="prefix__b8faeeeb-9013-4c53-94fe-d28d4356233f"
                d="M161.5 193.4 138.7 181c10.2-8.5 20.4-17 30-26.4a180.2 180.2 0 0 0 40-58 62 62 0 0 1 47.6-37L279 72.2a62 62 0 0 0-47.6 37 180.7 180.7 0 0 1-40 58c-9.6 9.4-19.8 17.8-30 26.3Z" />
        </clipPath>
        <style>
            .prefix__b8faeeeb-9013-4c53-94fe-d28d4356233f,
            .prefix__efc99239-3876-4ae0-a819-ea735174d42a {
                fill: none;
                stroke: #fff;
                stroke-miterlimit: 10
            }

            .prefix__efc99239-3876-4ae0-a819-ea735174d42a {
                stroke-width: .25px
            }
        </style>
    </defs>
    <g id="prefix__e8175226-cc7b-45a9-aa2d-7e30a3ded405" data-name="a29ac834-bc83-439d-920c-7bda780f625d">
        <g id="prefix__b58eb5ae-6f92-4442-ae33-7014ddf8eea1" data-name="f847b7b7-076a-4274-bbe4-ce3fff7a97b2">
            <g clip-path="url(#prefix__e63cebd9-b0d2-4a11-8835-796e70ce0d1d)">
                <path class="prefix__efc99239-3876-4ae0-a819-ea735174d42a"
                    d="M315.9 41c29 27.4 30.4 81.1-.4 121.9-16.6 22-37.2 35.4-62.2 39h-1.1q-19.3 2.5-38.6 5.3l-58.3 8.3-56.4 7.8-44.5 6.2a84 84 0 0 1-26.4 0c-7.7-1.3-13.1-5.6-14.4-14.2a22 22 0 0 1 9.2-21.7c2.2-1.7 1.3-2.3.2-3.4C-22.4 146 5 56.2 69.3 32.8a68.7 68.7 0 0 1 14-3.5l192.2-27A154 154 0 0 1 307.3.9c12.4 1 19 8.9 17.9 20.6a22 22 0 0 1-8.7 15.5c-2 1.6-2.5 2.4-.6 4.1Zm-234 130a62 62 0 0 0 47.3-36.4A188.6 188.6 0 0 1 174.7 71c8-7.5 16.4-14.2 24.8-21.5l-65 9.2-47 6.5c-21.8 3-36.9 16-46.9 37-11.5 24-6 51 11.8 62.8 8.6 5.7 19 7.4 29.5 6m216.6-43.5c10.2-22 5.7-47.4-9.4-59.5-9-7.2-20.7-9.6-32.4-8A62 62 0 0 0 209 97a181 181 0 0 1-40.1 58c-9.5 9.5-19.7 17.9-30 26.5l5-.7 72.3-10.4 34.7-4.7h.6c21.9-3.2 37-16.6 47-38" />
            </g>
            <path class="prefix__b8faeeeb-9013-4c53-94fe-d28d4356233f"
                d="M315.9 41c29 27.4 30.4 81.1-.4 121.9-16.6 22-37.2 35.4-62.2 39h-1.1q-19.3 2.5-38.6 5.3l-58.3 8.3-56.4 7.8-44.5 6.2a84 84 0 0 1-26.4 0c-7.7-1.3-13.1-5.6-14.4-14.2a22 22 0 0 1 9.2-21.7c2.2-1.7 1.3-2.3.2-3.4C-22.4 146 5 56.2 69.3 32.8a68.7 68.7 0 0 1 14-3.5l192.2-27A154 154 0 0 1 307.3.9c12.4 1 19 8.9 17.9 20.6a22 22 0 0 1-8.7 15.5c-2 1.6-2.5 2.4-.6 4.1Zm-234 130a62 62 0 0 0 47.3-36.4A188.6 188.6 0 0 1 174.7 71c8-7.5 16.4-14.2 24.8-21.5l-65 9.2-47 6.5c-21.8 3-36.9 16-46.9 37-11.5 24-6 51 11.8 62.8 8.6 5.7 19 7.4 29.5 6m216.6-43.5c10.2-22 5.7-47.4-9.4-59.5-9-7.2-20.7-9.6-32.4-8A62 62 0 0 0 209 97a181 181 0 0 1-40.1 58c-9.5 9.5-19.7 17.9-30 26.5l5-.7 72.3-10.4 34.7-4.7h.6c21.9-3.2 37-16.6 47-38" />
            <g clip-path="url(#prefix__b1a33a9a-6d8d-46de-b050-b83172cfc913)">
                <path class="prefix__efc99239-3876-4ae0-a819-ea735174d42a"
                    d="M338.6 53.4c29 27.4 30.5 81.1-.3 121.9-16.7 22-37.2 35.4-62.2 39H275q-19.3 2.5-38.6 5.3l-58.3 8.3-56.4 7.8-44.6 6.2a84 84 0 0 1-26.3 0c-7.7-1.4-13.2-5.6-14.5-14.2a22 22 0 0 1 9.3-21.8c2.2-1.6 1.3-2.2.1-3.3C.4 158.5 27.8 68.6 92 45.2a68.7 68.7 0 0 1 14.2-3.5l192-27c10.7-1.4 21.4-2.3 31.9-1.5 12.4 1 19 8.9 17.9 20.6a22 22 0 0 1-8.7 15.5c-2 1.6-2.5 2.4-.7 4.1Zm-234 130A62.1 62.1 0 0 0 152 147a188.5 188.5 0 0 1 45.6-63.6c8-7.5 16.4-14.2 24.7-21.4l-65 9.2-47 6.4c-21.7 3-36.8 16.1-46.9 37-11.5 24-6 51 11.8 62.8a43 43 0 0 0 29.5 6m216.7-43.5c10.1-22 5.6-47.4-9.4-59.5a42 42 0 0 0-32.5-8 62 62 0 0 0-47.6 37 179.9 179.9 0 0 1-40 58c-9.6 9.4-19.7 17.8-30 26.4l4.9-.7 72.3-10.4 34.8-4.7h.5c22-3.1 37-16.6 47-38" />
            </g>
            <path class="prefix__b8faeeeb-9013-4c53-94fe-d28d4356233f"
                d="M338.6 53.4c29 27.4 30.5 81.1-.3 121.9-16.7 22-37.2 35.4-62.2 39H275q-19.3 2.5-38.6 5.3l-58.3 8.3-56.4 7.8-44.6 6.2a84 84 0 0 1-26.3 0c-7.7-1.4-13.2-5.6-14.5-14.2a22 22 0 0 1 9.3-21.8c2.2-1.6 1.3-2.2.1-3.3C.4 158.5 27.8 68.6 92 45.2a68.7 68.7 0 0 1 14.2-3.5l192-27c10.7-1.4 21.4-2.3 31.9-1.5 12.4 1 19 8.9 17.9 20.6a22 22 0 0 1-8.7 15.5c-2 1.6-2.5 2.4-.7 4.1Zm-234 130A62.1 62.1 0 0 0 152 147a188.5 188.5 0 0 1 45.6-63.6c8-7.5 16.4-14.2 24.7-21.4l-65 9.2-47 6.4c-21.7 3-36.8 16.1-46.9 37-11.5 24-6 51 11.8 62.8a43 43 0 0 0 29.5 6m216.7-43.5c10.1-22 5.6-47.4-9.4-59.5a42 42 0 0 0-32.5-8 62 62 0 0 0-47.6 37 179.9 179.9 0 0 1-40 58c-9.6 9.4-19.7 17.8-30 26.4l4.9-.7 72.3-10.4 34.8-4.7h.5c22-3.1 37-16.6 47-38" />
            <g clip-path="url(#prefix__a8cd206c-085b-4c3e-982e-72443b95fd77)">
                <path class="prefix__efc99239-3876-4ae0-a819-ea735174d42a"
                    d="M338.6 53.4 316 41c29 27.4 30.4 81.1-.4 121.9l22.8 12.4c30.8-40.8 29.3-94.5.3-121.9Zm19.7 34.7-22.8-12.4m23 56-22.8-12.4" />
                <path class="prefix__efc99239-3876-4ae0-a819-ea735174d42a"
                    d="M276 214.2c25.1-3.5 45.7-16.9 62.3-39L315.5 163c-16.6 22-37.2 35.4-62.2 39m67-7.6L297.6 182m2 25.5-22.8-12.4m-23.5 6.7-1.1.2m22.8 12.4 1-.2m-.6.1-22.8-12.4m-.4.1q-19.3 2.4-38.6 5.2l22.8 12.4 38.6-5.2m-12.9 1.7-22.8-12.4m10 14.1-22.8-12.4m9.9 14.2-22.8-12.4-58.3 8.3 22.7 12.4 58.4-8.3Zm-19.5 2.7-22.7-12.4m3.3 15.2-22.8-12.4" />
                <path class="prefix__efc99239-3876-4ae0-a819-ea735174d42a"
                    d="M338.6 53.4c29 27.4 30.5 81.1-.3 121.9-16.7 22-37.2 35.4-62.2 39H275q-19.3 2.5-38.6 5.3l-58.3 8.3-22.8-12.4 58.3-8.3 38.6-5.2 1-.2c25.1-3.5 45.7-16.9 62.3-39 30.8-40.7 29.3-94.4.4-121.8Z" />
            </g>
            <path class="prefix__b8faeeeb-9013-4c53-94fe-d28d4356233f"
                d="M338.6 53.4c29 27.4 30.5 81.1-.3 121.9-16.7 22-37.2 35.4-62.2 39H275q-19.3 2.5-38.6 5.3l-58.3 8.3-22.8-12.4 58.3-8.3 38.6-5.2 1-.2c25.1-3.5 45.7-16.9 62.3-39 30.8-40.7 29.3-94.4.4-121.8Z" />
            <g clip-path="url(#prefix__e6c23af8-83d3-4eb0-974b-3aef4ba9d89a)">
                <path class="prefix__efc99239-3876-4ae0-a819-ea735174d42a"
                    d="M50.8 242 28 229.4c-7.7-1.4-13.2-5.7-14.5-14.2l22.8 12.4c1.3 8.6 6.8 12.8 14.5 14.2Zm-6.9-2.5-22.8-12.4m17.8 7.8-22.8-12.4" />
                <path class="prefix__efc99239-3876-4ae0-a819-ea735174d42a"
                    d="m36.3 227.7-22.8-12.4a22 22 0 0 1 9.3-21.8L45.6 206a21.9 21.9 0 0 0-9.3 21.8Zm.2-8.3L13.7 207m25.9 5.1-22.8-12.4" />
                <path class="prefix__efc99239-3876-4ae0-a819-ea735174d42a"
                    d="m45.6 206-22.8-12.5c2.2-1.6 1.3-2.3.1-3.4l22.8 12.4c1.2 1.2 2 1.8-.1 3.4Zm1.2-1.4-22.7-12.4m22.6 11.4-22.8-12.4" />
                <path class="prefix__efc99239-3876-4ae0-a819-ea735174d42a"
                    d="M45.7 202.6 23 190.2C-22.4 146 5 56.2 69.3 32.8L92 45.2C27.8 68.7.4 158.5 45.7 202.6Zm-22.4-55.2L.5 135m40.9-48.4L18.6 74.2" />
                <path class="prefix__efc99239-3876-4ae0-a819-ea735174d42a"
                    d="M92 45.2 69.2 32.8a68.7 68.7 0 0 1 14.2-3.5l22.8 12.4A68.7 68.7 0 0 0 92 45.2Zm4.7-1.5L73.9 31.3m27.5 11.2L78.6 30.1" />
                <path class="prefix__efc99239-3876-4ae0-a819-ea735174d42a"
                    d="M106.2 41.7 83.4 29.3l192-27 22.9 12.5-192.1 27Zm64-9-22.8-12.4m86.8 3.4-22.8-12.4" />
                <path class="prefix__efc99239-3876-4ae0-a819-ea735174d42a"
                    d="M298.3 14.8 275.5 2.4C286 .9 296.8 0 307.3.8L330 13.2c-10.5-.8-21.2 0-31.8 1.6Zm10.6-1.3L286.1 1.1m33.4 11.8L296.8.5" />
                <path class="prefix__efc99239-3876-4ae0-a819-ea735174d42a"
                    d="M330 13.2 307.4.8c12.4 1 19 8.9 17.9 20.6L348 33.8c1.3-11.7-5.4-19.5-17.8-20.6Z" />
                <path class="prefix__efc99239-3876-4ae0-a819-ea735174d42a"
                    d="m44.3 239.7-22.8-12.3c-4.2-2.3-7-6.2-8-12a22 22 0 0 1 9.3-21.8c2.1-1.6 1.3-2.3.1-3.4C-22.4 146.1 5 56.2 69.2 32.8a68.7 68.7 0 0 1 14.2-3.5l192-27a157 157 0 0 1 32-1.4 24 24 0 0 1 9.5 2.7L339.7 16a23.8 23.8 0 0 0-9.5-2.6c-10.5-.9-21.2 0-31.8 1.5l-192.1 27A68.7 68.7 0 0 0 92 45.3C27.8 68.7.4 158.5 45.7 202.6c1.2 1 2 1.7-.1 3.3a21.9 21.9 0 0 0-9.3 21.8c.9 5.9 3.8 9.8 8 12Z" />
            </g>
            <path class="prefix__b8faeeeb-9013-4c53-94fe-d28d4356233f"
                d="m44.3 239.7-22.8-12.3c-4.2-2.3-7-6.2-8-12a22 22 0 0 1 9.3-21.8c2.1-1.6 1.3-2.3.1-3.4C-22.4 146.1 5 56.2 69.2 32.8a68.7 68.7 0 0 1 14.2-3.5l192-27a157 157 0 0 1 32-1.4 24 24 0 0 1 9.5 2.7L339.7 16a23.8 23.8 0 0 0-9.5-2.6c-10.5-.9-21.2 0-31.8 1.5l-192.1 27A68.7 68.7 0 0 0 92 45.3C27.8 68.7.4 158.5 45.7 202.6c1.2 1 2 1.7-.1 3.3a21.9 21.9 0 0 0-9.3 21.8c.9 5.9 3.8 9.8 8 12Z" />
            <g clip-path="url(#prefix__b8da8e9f-9029-4d45-ad8b-056fc5338fe4)">
                <path class="prefix__efc99239-3876-4ae0-a819-ea735174d42a"
                    d="m178 227.9-22.7-12.4-56.4 7.8 22.8 12.4 56.3-7.8Zm-18.7 2.5L136.5 218m4 15-22.8-12.4" />
                <path class="prefix__efc99239-3876-4ae0-a819-ea735174d42a"
                    d="M121.7 235.7 99 223.3l-44.5 6.2 22.8 12.4 44.5-6.2Zm-14.9 2.1-22.7-12.4m7.9 14.4-22.8-12.4M50.8 242a84.6 84.6 0 0 0 26.3-.1l-22.7-12.4a84 84 0 0 1-26.4 0m40.3 13.3-22.8-12.4m14 12.5-22.8-12.4" />
                <path class="prefix__efc99239-3876-4ae0-a819-ea735174d42a"
                    d="M28 229.5c-7.7-1.4-13.2-5.7-14.5-14.2l22.8 12.4c1.3 8.6 6.8 12.8 14.5 14.2" />
                <path class="prefix__efc99239-3876-4ae0-a819-ea735174d42a"
                    d="M21.5 227.4a21.8 21.8 0 0 0 6.5 2.2 84 84 0 0 0 26.3 0q22.3-3 44.6-6.3l56.4-7.8L178 228l-56.3 7.8-44.6 6.2a84 84 0 0 1-26.3 0 21.8 21.8 0 0 1-6.5-2.1Z" />
            </g>
            <path class="prefix__b8faeeeb-9013-4c53-94fe-d28d4356233f"
                d="M21.5 227.4a21.8 21.8 0 0 0 6.5 2.2 84 84 0 0 0 26.3 0q22.3-3 44.6-6.3l56.4-7.8L178 228l-56.3 7.8-44.6 6.2a84 84 0 0 1-26.3 0 21.8 21.8 0 0 1-6.5-2.1Z" />
            <g clip-path="url(#prefix__a34f2620-0b96-4d66-9290-0935a677f2c0)">
                <path class="prefix__efc99239-3876-4ae0-a819-ea735174d42a"
                    d="M330 13.2 307.4.8c12.4 1 19 8.9 17.9 20.6L348 33.8c1.3-11.7-5.4-19.5-17.8-20.6Zm10.5 3.2L317.7 4m28.9 19.5-22.8-12.4M348 33.8l-23-12.4a22 22 0 0 1-8.7 15.5l22.8 12.4a22 22 0 0 0 8.7-15.5Zm-1.5 6-22.8-12.4M343.6 45l-22.8-12.4" />
                <path class="prefix__efc99239-3876-4ae0-a819-ea735174d42a"
                    d="m339.3 49.3-22.8-12.4c-2 1.6-2.5 2.4-.6 4.1l22.8 12.4c-2-1.7-1.5-2.5.6-4.1Zm-1.5 1.4L315 38.3m22.5 13.6-22.8-12.4" />
                <path class="prefix__efc99239-3876-4ae0-a819-ea735174d42a"
                    d="M339.6 15.9c6.2 3.3 9.2 9.7 8.4 18a22 22 0 0 1-8.7 15.5c-2 1.6-2.5 2.4-.7 4.1L316 41.1c-1.9-1.8-1.5-2.6.6-4.2a22 22 0 0 0 8.7-15.4c.8-8.3-2.2-14.6-8.4-18Z" />
            </g>
            <path class="prefix__b8faeeeb-9013-4c53-94fe-d28d4356233f"
                d="M339.6 15.9c6.2 3.3 9.2 9.7 8.4 18a22 22 0 0 1-8.7 15.5c-2 1.6-2.5 2.4-.7 4.1L316 41.1c-1.9-1.8-1.5-2.6.6-4.2a22 22 0 0 0 8.7-15.4c.8-8.3-2.2-14.6-8.4-18Z" />
            <g clip-path="url(#prefix__f7b6b199-cd84-4b48-bf8d-dfbd74412713)">
                <path class="prefix__efc99239-3876-4ae0-a819-ea735174d42a"
                    d="M104.7 183.4 81.9 171a62 62 0 0 0 47.3-36.4L152 147c-8.6 20-28 33.6-47.3 36.4Zm18.9-6.2-22.8-12.4m39.4-.1-22.8-12.4" />
                <path class="prefix__efc99239-3876-4ae0-a819-ea735174d42a"
                    d="m152 147-23-12.4A188.6 188.6 0 0 1 174.7 71l22.8 12.4A189.2 189.2 0 0 0 152 147Zm12.2-23.5-22.9-12.4m38.2-8.7L156.7 90" />
                <path class="prefix__efc99239-3876-4ae0-a819-ea735174d42a"
                    d="M197.5 83.4 174.7 71c8-7.5 16.4-14.2 24.7-21.5L222.3 62c-8.3 7.3-16.8 14-24.7 21.5Zm8.1-7.3-22.8-12.4m31.1 5.3-22.8-12.4" />
                <path class="prefix__efc99239-3876-4ae0-a819-ea735174d42a"
                    d="M104.7 183.4 81.9 171a62 62 0 0 0 47.3-36.4A188.6 188.6 0 0 1 174.7 71c8-7.5 16.4-14.2 24.8-21.5L222.1 62c-8.3 7.2-16.8 14-24.7 21.4A188.5 188.5 0 0 0 152 147c-8.5 20-28 33.6-47.2 36.4Z" />
            </g>
            <path class="prefix__b8faeeeb-9013-4c53-94fe-d28d4356233f"
                d="M104.7 183.4 81.9 171a62 62 0 0 0 47.3-36.4A188.6 188.6 0 0 1 174.7 71c8-7.5 16.4-14.2 24.8-21.5L222.1 62c-8.3 7.2-16.8 14-24.7 21.4A188.5 188.5 0 0 0 152 147c-8.5 20-28 33.6-47.2 36.4Z" />
            <g clip-path="url(#prefix__e4e81301-ac9d-43c5-a165-8efcdde75ae8)">
                <path class="prefix__efc99239-3876-4ae0-a819-ea735174d42a"
                    d="M75.1 177.4 52.4 165c8.6 5.7 19 7.4 29.5 6l22.8 12.4c-10.5 1.4-21-.3-29.6-6Zm19.2 6.3-22.8-12.4" />
                <path class="prefix__efc99239-3876-4ae0-a819-ea735174d42a"
                    d="M77.8 179 55 166.6c8 4.4 17.5 5.7 26.9 4.3l22.8 12.5c-9.4 1.3-18.8 0-26.9-4.4Z" />
            </g>
            <path class="prefix__b8faeeeb-9013-4c53-94fe-d28d4356233f"
                d="M77.8 179 55 166.6c8 4.4 17.5 5.7 26.9 4.3l22.8 12.5c-9.4 1.3-18.8 0-26.9-4.4Z" />
            <g clip-path="url(#prefix__ae96a6c9-7edd-4af1-9424-f7cb2e2bf93b)">
                <path class="prefix__efc99239-3876-4ae0-a819-ea735174d42a"
                    d="m222.2 62-22.8-12.5-65 9.2L157.3 71Zm-21.6 3-22.8-12.4m1.1 15.4-22.8-12.4" />
                <path class="prefix__efc99239-3876-4ae0-a819-ea735174d42a"
                    d="m157.2 71.1-22.8-12.4-47 6.5 22.8 12.4 47-6.5Zm-15.7 2.2-22.8-12.4m7.2 14.6-22.8-12.4" />
                <path class="prefix__efc99239-3876-4ae0-a819-ea735174d42a"
                    d="M110.2 77.6 87.4 65.2c-21.7 3-36.8 16-46.9 37l22.9 12.4c10-21 25.1-34 46.8-37Zm-19.5 6.3L67.9 71.5m7.2 24.9L52.4 84" />
                <path class="prefix__efc99239-3876-4ae0-a819-ea735174d42a"
                    d="m63.4 114.6-22.8-12.4c-11.6 24-6 51 11.8 62.8L75 177.4c-17.8-11.7-23.3-38.7-11.7-62.8ZM57.3 139l-22.8-12.4m27.1 34.7-22.8-12.5" />
                <path class="prefix__efc99239-3876-4ae0-a819-ea735174d42a"
                    d="M75.1 177.4 52.4 165c8.6 5.7 19 7.4 29.5 6l22.8 12.4c-10.5 1.4-21-.3-29.6-6Z" />
                <path class="prefix__efc99239-3876-4ae0-a819-ea735174d42a"
                    d="M55 166.6a28.1 28.1 0 0 1-2.6-1.6c-17.9-11.7-23.4-38.7-11.8-62.8 10-21 25.1-34 46.8-37l47-6.5 65-9.2L222.2 62l-65 9.2-47 6.5c-21.7 3-36.8 16-46.9 37-11.5 24-6 51 11.8 62.8l2.7 1.6Z" />
            </g>
            <path class="prefix__b8faeeeb-9013-4c53-94fe-d28d4356233f"
                d="M55 166.6a28.1 28.1 0 0 1-2.6-1.6c-17.9-11.7-23.4-38.7-11.8-62.8 10-21 25.1-34 46.8-37l47-6.5 65-9.2L222.2 62l-65 9.2-47 6.5c-21.7 3-36.8 16-46.9 37-11.5 24-6 51 11.8 62.8l2.7 1.6Z" />
            <g clip-path="url(#prefix__b198e14d-a43f-454a-bd6d-d1ba9223fe1d)">
                <path class="prefix__efc99239-3876-4ae0-a819-ea735174d42a"
                    d="M312 80.4 289 68a42 42 0 0 0-32.4-8l22.7 12.4c11.8-1.6 23.5.8 32.5 8Zm-9.9-5.6-22.8-12.4m11.8 9.8-22.8-12.4m11.1 12.7-22.7-12.4a62 62 0 0 0-47.6 37l22.8 12.3a62 62 0 0 1 47.5-36.9Zm-18.9 6.2-22.8-12.4m6.1 24.9L221 78.8" />
                <path class="prefix__efc99239-3876-4ae0-a819-ea735174d42a"
                    d="M232 109.4 209 97a181 181 0 0 1-40 58l22.7 12.4a182.2 182.2 0 0 0 40.1-58Zm-10.9 21.2-22.8-12.4m9.3 31.6-22.8-12.4" />
                <path class="prefix__efc99239-3876-4ae0-a819-ea735174d42a"
                    d="M191.8 167.4 169 155c-9.5 9.4-19.7 17.8-30 26.4l22.9 12.4c10.2-8.6 20.4-17 29.9-26.4Zm-9.7 9.1-22.8-12.4m12.8 21.2-22.8-12.4" />
                <path class="prefix__efc99239-3876-4ae0-a819-ea735174d42a"
                    d="M306.5 76.8c-8-4.4-17.5-5.7-27-4.3a62 62 0 0 0-47.6 37 180.6 180.6 0 0 1-40 58c-9.6 9.4-19.8 17.8-30 26.4L139 181.5c10.3-8.6 20.5-17 30-26.4a180.2 180.2 0 0 0 40-58 62 62 0 0 1 47.6-37c9.5-1.3 19 0 27 4.4Z" />
            </g>
            <path class="prefix__b8faeeeb-9013-4c53-94fe-d28d4356233f"
                d="M306.5 76.8c-8-4.4-17.5-5.7-27-4.3a62 62 0 0 0-47.6 37 180.6 180.6 0 0 1-40 58c-9.6 9.4-19.8 17.8-30 26.4L139 181.5c10.3-8.6 20.5-17 30-26.4a180.2 180.2 0 0 0 40-58 62 62 0 0 1 47.6-37c9.5-1.3 19 0 27 4.4Z" />
            <g clip-path="url(#prefix__b3724d98-7198-4ab8-9404-6f5ca8693638)">
                <path class="prefix__efc99239-3876-4ae0-a819-ea735174d42a"
                    d="m321.3 140-22.8-12.5c10.2-22 5.7-47.4-9.4-59.5L312 80.4c15.1 12.1 19.6 37.5 9.4 59.5Zm5.5-22.6L304 105m19.3-8.7-22.8-12.4" />
                <path class="prefix__efc99239-3876-4ae0-a819-ea735174d42a"
                    d="M312 80.4 289 68a42 42 0 0 0-32.4-8l22.7 12.4c11.8-1.6 23.5.8 32.5 8Z" />
                <path class="prefix__efc99239-3876-4ae0-a819-ea735174d42a"
                    d="m283.7 64.4 22.8 12.4a36.6 36.6 0 0 1 5.4 3.6c15.1 12.1 19.6 37.4 9.4 59.5l-22.8-12.4c10.2-22.1 5.7-47.4-9.4-59.5a36.6 36.6 0 0 0-5.4-3.6Z" />
            </g>
            <path class="prefix__b8faeeeb-9013-4c53-94fe-d28d4356233f"
                d="m283.7 64.4 22.8 12.4a36.6 36.6 0 0 1 5.4 3.6c15.1 12.1 19.6 37.4 9.4 59.5l-22.8-12.4c10.2-22.1 5.7-47.4-9.4-59.5a36.6 36.6 0 0 0-5.4-3.6Z" />
            <g clip-path="url(#prefix__b7c42742-d29b-4614-8983-695b1d4cb8df)">
                <path class="prefix__efc99239-3876-4ae0-a819-ea735174d42a"
                    d="m161.8 193.8-22.7-12.4 4.8-.7 22.8 12.4Z" />
                <path class="prefix__efc99239-3876-4ae0-a819-ea735174d42a"
                    d="M166.7 193.1 144 180.7c24.1-3.4 48.3-7 72.4-10.3l22.8 12.4c-24.2 3.4-48.3 7-72.4 10.3Zm24.1-3.4L168 177.3m46.9 8.9-22.7-12.4" />
                <path class="prefix__efc99239-3876-4ae0-a819-ea735174d42a"
                    d="m239 182.8-22.7-12.4q17.3-2.5 34.7-4.8l22.8 12.4-34.7 4.8Zm11.7-1.6-22.8-12.4m34.3 10.8-22.8-12.4" />
                <path class="prefix__efc99239-3876-4ae0-a819-ea735174d42a"
                    d="M273.8 178 251 165.6h.6l22.8 12.3Zm.2 0-22.8-12.4m23 12.4-22.8-12.4" />
                <path class="prefix__efc99239-3876-4ae0-a819-ea735174d42a"
                    d="m274.4 178-22.8-12.4c21.9-3.1 37-16.6 46.9-38l22.8 12.4c-10 21.4-25 34.9-47 38Zm19.7-6.5-22.8-12.4m38.3-.4-22.8-12.4" />
                <path class="prefix__efc99239-3876-4ae0-a819-ea735174d42a"
                    d="m161.8 193.8-22.7-12.4 4.8-.7c24.1-3.4 48.3-7 72.4-10.3q17.3-2.5 34.7-4.8h.6c21.9-3.1 37-16.6 47-38l22.7 12.3c-10 21.6-25 35-46.9 38l-.6.1-34.7 4.8c-24.2 3.4-48.3 7-72.4 10.3Z" />
            </g>
            <path class="prefix__b8faeeeb-9013-4c53-94fe-d28d4356233f"
                d="m161.8 193.8-22.7-12.4 4.8-.7c24.1-3.4 48.3-7 72.4-10.3q17.3-2.5 34.7-4.8h.6c21.9-3.1 37-16.6 47-38l22.7 12.3c-10 21.6-25 35-46.9 38l-.6.1-34.7 4.8c-24.2 3.4-48.3 7-72.4 10.3Z" />
            <g clip-path="url(#prefix__adb70346-d1a7-4458-9d6f-3d42f2b961cd)">
                <path class="prefix__efc99239-3876-4ae0-a819-ea735174d42a"
                    d="m87 65.3 47.4-6.6 65-9.2c-8.3 7.3-16.8 14-24.7 21.5a188.6 188.6 0 0 0-45.6 63.6 62 62 0 0 1-47.3 36.3 42 42 0 0 1-29.5-5.9c-17.8-11.7-23.3-38.7-11.8-62.8 10.1-21 25.2-34 46.6-37Z" />
            </g>
            <path class="prefix__b8faeeeb-9013-4c53-94fe-d28d4356233f"
                d="m87 65.3 47.4-6.6 65-9.2c-8.3 7.3-16.8 14-24.7 21.5a188.6 188.6 0 0 0-45.6 63.6 62 62 0 0 1-47.3 36.3 42 42 0 0 1-29.5-5.9c-17.8-11.7-23.3-38.7-11.8-62.8 10.1-21 25.2-34 46.6-37Z" />
            <g clip-path="url(#prefix__b791ddc2-c6ff-46c8-a888-f00533340fbc)">
                <path class="prefix__efc99239-3876-4ae0-a819-ea735174d42a"
                    d="m109.9 77.7 47.3-6.6 65-9.2c-8.3 7.3-16.7 14-24.7 21.5a188.8 188.8 0 0 0-45.6 63.5 62 62 0 0 1-47.2 36.4c-10.5 1.5-21-.2-29.5-5.9-17.9-11.7-23.4-38.7-11.8-62.8 10-21 25.1-34 46.5-37Z" />
            </g>
            <path class="prefix__b8faeeeb-9013-4c53-94fe-d28d4356233f"
                d="m109.9 77.7 47.3-6.6 65-9.2c-8.3 7.3-16.7 14-24.7 21.5a188.8 188.8 0 0 0-45.6 63.5 62 62 0 0 1-47.2 36.4c-10.5 1.5-21-.2-29.5-5.9-17.9-11.7-23.4-38.7-11.8-62.8 10-21 25.1-34 46.5-37Z" />
            <g clip-path="url(#prefix__abc18ef1-d22b-4abf-8039-f6bf61d2bfb3)">
                <path class="prefix__efc99239-3876-4ae0-a819-ea735174d42a"
                    d="M109.9 77.7 87 65.3l47.3-6.6 22.8 12.4c-15.7 2.3-31.3 4.4-47.3 6.6Zm15.9-2.2L103 63.1m38.5 10.2-22.8-12.4" />
                <path class="prefix__efc99239-3876-4ae0-a819-ea735174d42a"
                    d="m157.2 71.1-22.8-12.4 65-9.2L222.2 62l-65 9.2Zm21.7-3.1-22.8-12.4m44.5 9.4-22.8-12.4" />
                <path class="prefix__efc99239-3876-4ae0-a819-ea735174d42a"
                    d="M109.9 77.7 87 65.3l47.3-6.6 65-9.2L222.2 62l-65 9.2c-15.7 2.3-31.3 4.4-47.3 6.6Z" />
            </g>
            <path class="prefix__b8faeeeb-9013-4c53-94fe-d28d4356233f"
                d="M109.9 77.7 87 65.3l47.3-6.6 65-9.2L222.2 62l-65 9.2c-15.7 2.3-31.3 4.4-47.3 6.6Z" />
            <g clip-path="url(#prefix__f12a3bcd-84ff-4159-bc24-8e72818a4223)">
                <path class="prefix__efc99239-3876-4ae0-a819-ea735174d42a"
                    d="M104.7 183.4 81.9 171a42.5 42.5 0 0 1-29.5-6L75 177.4a43 43 0 0 0 29.6 6Z" />
                <path class="prefix__efc99239-3876-4ae0-a819-ea735174d42a"
                    d="M75.1 177.4 52.4 165c-17.9-11.7-23.3-38.7-11.8-62.8l22.8 12.4c-11.6 24-6.1 51 11.7 62.8Zm-13.5-16.1-22.8-12.5m18.5-9.8-22.8-12.4m28.9-12-22.8-12.4c10-21 25.1-34 46.5-37l22.8 12.4c-21.4 3-36.5 16-46.5 37Zm11.7-18.2L52.3 84m38.2-.1L67.8 71.5" />
                <path class="prefix__efc99239-3876-4ae0-a819-ea735174d42a"
                    d="M77.8 179 55 166.6a28.1 28.1 0 0 1-2.6-1.6c-17.9-11.7-23.4-38.7-11.8-62.8 10-21 25.1-34 46.5-37l22.8 12.4c-21.4 3-36.5 16-46.5 37-11.6 24-6.1 51 11.7 62.8l2.7 1.6Z" />
            </g>
            <path class="prefix__b8faeeeb-9013-4c53-94fe-d28d4356233f"
                d="M77.8 179 55 166.6a28.1 28.1 0 0 1-2.6-1.6c-17.9-11.7-23.4-38.7-11.8-62.8 10-21 25.1-34 46.5-37l22.8 12.4c-21.4 3-36.5 16-46.5 37-11.6 24-6.1 51 11.7 62.8l2.7 1.6Z" />
            <g clip-path="url(#prefix__b384759f-564d-4d0e-82d7-8b7346550d8a)">
                <path class="prefix__efc99239-3876-4ae0-a819-ea735174d42a"
                    d="m222.2 62-22.8-12.5c-8.3 7.2-16.7 14-24.7 21.4l22.8 12.5c8-7.5 16.4-14.2 24.7-21.5Zm-8.3 7-22.8-12.4m14.5 19.5-22.8-12.4" />
                <path class="prefix__efc99239-3876-4ae0-a819-ea735174d42a"
                    d="M197.5 83.4 174.7 71a188.6 188.6 0 0 0-45.6 63.6L152 147a189.3 189.3 0 0 1 45.6-63.6Zm-18 19L156.7 90m7.5 33.5-22.8-12.4M152 147l-23-12.4a62 62 0 0 1-47 36.3l22.8 12.5A62.3 62.3 0 0 0 152 147Zm-11.8 17.7-22.8-12.4m6.2 24.9-22.8-12.4m3.9 18.6L81.9 171a42.5 42.5 0 0 1-29.5-6L75 177.4a43 43 0 0 0 29.6 6Zm-10.4.3-22.8-12.4" />
                <path class="prefix__efc99239-3876-4ae0-a819-ea735174d42a"
                    d="M55 166.6c8 4.4 17.5 5.7 26.9 4.3a62 62 0 0 0 47.2-36.3A188.6 188.6 0 0 1 174.7 71c8-7.5 16.4-14.2 24.7-21.5l22.8 12.4c-8.3 7.3-16.8 14-24.7 21.5A188.8 188.8 0 0 0 152 147c-8.5 20-28 33.6-47.2 36.3a43.6 43.6 0 0 1-26.9-4.3Z" />
            </g>
            <path class="prefix__b8faeeeb-9013-4c53-94fe-d28d4356233f"
                d="M55 166.6c8 4.4 17.5 5.7 26.9 4.3a62 62 0 0 0 47.2-36.3A188.6 188.6 0 0 1 174.7 71c8-7.5 16.4-14.2 24.7-21.5l22.8 12.4c-8.3 7.3-16.8 14-24.7 21.5A188.8 188.8 0 0 0 152 147c-8.5 20-28 33.6-47.2 36.3a43.6 43.6 0 0 1-26.9-4.3Z" />
            <g clip-path="url(#prefix__b18a83de-0be4-4fe3-aa38-8acc8ee5d1b5)">
                <path class="prefix__efc99239-3876-4ae0-a819-ea735174d42a"
                    d="M256.7 60c11.7-1.6 23.4.8 32.4 8 15.1 12.2 19.6 37.5 9.4 59.6-10 21.5-25 35-46.9 38h-.6q-17.4 2.3-34.7 4.8c-24.2 3.4-48.3 7-72.4 10.3l-4.8.7c10.2-8.5 20.4-17 29.9-26.4a180.2 180.2 0 0 0 40-58 62 62 0 0 1 47.6-37Z" />
            </g>
            <path class="prefix__b8faeeeb-9013-4c53-94fe-d28d4356233f"
                d="M256.7 60c11.7-1.6 23.4.8 32.4 8 15.1 12.2 19.6 37.5 9.4 59.6-10 21.5-25 35-46.9 38h-.6q-17.4 2.3-34.7 4.8c-24.2 3.4-48.3 7-72.4 10.3l-4.8.7c10.2-8.5 20.4-17 29.9-26.4a180.2 180.2 0 0 0 40-58 62 62 0 0 1 47.6-37Z" />
            <g clip-path="url(#prefix__b5be5307-233e-44c2-8c29-bab49e9b00af)">
                <path class="prefix__efc99239-3876-4ae0-a819-ea735174d42a"
                    d="M279.4 72.5c11.8-1.7 23.5.7 32.5 8 15.1 12.1 19.6 37.4 9.4 59.5-10 21.5-25 35-46.9 38h-.6l-34.7 4.8-72.4 10.4-4.9.7c10.3-8.6 20.5-17 30-26.5a180 180 0 0 0 40-58 62 62 0 0 1 47.6-36.9Z" />
            </g>
            <path class="prefix__b8faeeeb-9013-4c53-94fe-d28d4356233f"
                d="M279.4 72.5c11.8-1.7 23.5.7 32.5 8 15.1 12.1 19.6 37.4 9.4 59.5-10 21.5-25 35-46.9 38h-.6l-34.7 4.8-72.4 10.4-4.9.7c10.3-8.6 20.5-17 30-26.5a180 180 0 0 0 40-58 62 62 0 0 1 47.6-36.9Z" />
            <g clip-path="url(#prefix__f6935f05-55ba-499a-a98a-f456103eb548)">
                <path class="prefix__efc99239-3876-4ae0-a819-ea735174d42a"
                    d="m279.4 72.5-22.7-12.4c11.7-1.7 23.4.7 32.4 8L312 80.5c-9-7.3-20.7-9.7-32.4-8Z" />
                <path class="prefix__efc99239-3876-4ae0-a819-ea735174d42a"
                    d="M312 80.4 289 68c15.1 12.1 19.6 37.4 9.4 59.5l22.9 12.4c10.1-22 5.6-47.4-9.5-59.5Zm11.3 15.9-22.8-12.4m26.3 33.5L304 105" />
                <path class="prefix__efc99239-3876-4ae0-a819-ea735174d42a"
                    d="m321.3 140-22.8-12.5c-10 21.5-25 35-46.9 38l22.8 12.4c21.9-3 37-16.5 47-38Zm-11.7 18.7-22.8-12.4m7.3 25.2-22.8-12.4m3.1 18.9-22.8-12.4h-.6l22.8 12.4Zm-.2 0-22.8-12.4M274 178l-22.8-12.4m22.6 12.4L251 165.6q-17.4 2.3-34.7 4.8l22.8 12.4 34.7-4.8Zm-11.6 1.6-22.8-12.4m11.3 14-22.8-12.4" />
                <path class="prefix__efc99239-3876-4ae0-a819-ea735174d42a"
                    d="M166.7 193.1c24.1-3.4 48.2-7 72.4-10.3l-22.8-12.4-72.4 10.3m71 5.5-22.7-12.4m-1.4 15.9L168 177.3" />
                <path class="prefix__efc99239-3876-4ae0-a819-ea735174d42a" d="m144 180.7-5 .7 22.9 12.4 4.8-.7" />
                <path class="prefix__efc99239-3876-4ae0-a819-ea735174d42a"
                    d="M306.5 76.8a36.6 36.6 0 0 1 5.4 3.6c15.1 12.1 19.6 37.5 9.4 59.5-10 21.5-25 35-46.9 38l-.6.1-34.7 4.8c-24.1 3.3-48.3 6.9-72.4 10.3l-4.8.7-22.8-12.4 4.8-.7 72.4-10.4 34.7-4.7.6-.1c21.9-3 37-16.5 47-38 10.1-22 5.6-47.4-9.5-59.5a36 36 0 0 0-5.4-3.6Z" />
            </g>
            <path class="prefix__b8faeeeb-9013-4c53-94fe-d28d4356233f"
                d="M306.5 76.8a36.6 36.6 0 0 1 5.4 3.6c15.1 12.1 19.6 37.5 9.4 59.5-10 21.5-25 35-46.9 38l-.6.1-34.7 4.8c-24.1 3.3-48.3 6.9-72.4 10.3l-4.8.7-22.8-12.4 4.8-.7 72.4-10.4 34.7-4.7.6-.1c21.9-3 37-16.5 47-38 10.1-22 5.6-47.4-9.5-59.5a36 36 0 0 0-5.4-3.6Z" />
            <g clip-path="url(#prefix__b2cc3809-ace3-4d57-a8cf-fe08cced1801)">
                <path class="prefix__efc99239-3876-4ae0-a819-ea735174d42a"
                    d="m279.4 72.5-22.7-12.4c11.7-1.7 23.4.7 32.4 8L312 80.5c-9-7.3-20.7-9.7-32.4-8Zm11.7-.3-22.8-12.4m33.8 15-22.8-12.4" />
                <path class="prefix__efc99239-3876-4ae0-a819-ea735174d42a"
                    d="m283.7 64.4 22.8 12.4c-8-4.4-17.5-5.7-27-4.4l-22.8-12.3c9.5-1.4 19 0 27 4.3Z" />
            </g>
            <path class="prefix__b8faeeeb-9013-4c53-94fe-d28d4356233f"
                d="m283.7 64.4 22.8 12.4c-8-4.4-17.5-5.7-27-4.4l-22.8-12.3c9.5-1.4 19 0 27 4.3Z" />
            <g clip-path="url(#prefix__e4ab9505-9fdb-4666-b07a-61500c33f397)">
                <path class="prefix__efc99239-3876-4ae0-a819-ea735174d42a"
                    d="m161.8 193.8-22.7-12.4c10.2-8.6 20.4-17 29.9-26.4l22.8 12.4c-9.5 9.5-19.7 17.8-30 26.4Zm10.3-8.5-22.8-12.4m32.8 3.6-22.8-12.4" />
                <path class="prefix__efc99239-3876-4ae0-a819-ea735174d42a"
                    d="M191.8 167.4 169 155a180.2 180.2 0 0 0 40-58l22.8 12.4a180.5 180.5 0 0 1-40.1 58Zm15.8-17.6-22.8-12.4m36.3-6.8-22.8-12.4" />
                <path class="prefix__efc99239-3876-4ae0-a819-ea735174d42a"
                    d="M232 109.4 209 97a62 62 0 0 1 47.6-37l22.8 12.5a62 62 0 0 0-47.6 37Zm11.8-18.2L221 78.8m39.5-.1-22.8-12.4" />
                <path class="prefix__efc99239-3876-4ae0-a819-ea735174d42a"
                    d="m161.8 193.8-22.7-12.4c10.2-8.6 20.4-17 29.9-26.4a180.2 180.2 0 0 0 40-58 62 62 0 0 1 47.6-37l22.8 12.5a62 62 0 0 0-47.6 37 180.7 180.7 0 0 1-40.1 58c-9.5 9.4-19.7 17.7-30 26.3Z" />
            </g>
            <path class="prefix__b8faeeeb-9013-4c53-94fe-d28d4356233f"
                d="m161.8 193.8-22.7-12.4c10.2-8.6 20.4-17 29.9-26.4a180.2 180.2 0 0 0 40-58 62 62 0 0 1 47.6-37l22.8 12.5a62 62 0 0 0-47.6 37 180.7 180.7 0 0 1-40.1 58c-9.5 9.4-19.7 17.7-30 26.3Z" />
        </g>
    </g>
</svg>